<svg width="6" height="6" viewBox="0 0 6 6" fill="none" xmlns="http://www.w3.org/2000/svg">
<path d="M2.75297 5.8272C2.7805 5.88049 2.81733 5.92407 2.86029 5.95417C2.90325 5.98427 2.95106 6 2.99959 6C3.04813 6 3.09594 5.98427 3.1389 5.95417C3.18186 5.92407 3.21869 5.88049 3.24621 5.8272L5.94642 0.627557C5.97768 0.567584 5.99601 0.497339 5.99942 0.424453C6.00283 0.351568 5.99119 0.27883 5.96577 0.214143C5.94035 0.149456 5.90212 0.0952928 5.85523 0.0575393C5.80834 0.0197859 5.75458 -0.00011453 5.6998 4.95827e-07H0.299382C0.244731 0.000301439 0.191175 0.0204577 0.144474 0.0583016C0.0977731 0.0961456 0.059694 0.150245 0.0343318 0.214783C0.00896956 0.279321 -0.00271616 0.351854 0.000531281 0.424584C0.00377872 0.497313 0.0218365 0.567486 0.0527626 0.627557L2.75297 5.8272Z" fill="#4DBD49"/>
</svg>
