<svg width="203" height="55" viewBox="0 0 203 55" fill="none" xmlns="http://www.w3.org/2000/svg">
<path d="M24.7019 26.2217C22.862 26.2355 21.4379 25.7063 20.4298 24.6338C19.4217 23.5614 18.9109 22.1252 18.8973 20.3253L27.1771 20.2628C28.977 20.2493 30.4991 20.5178 31.7433 21.0684C32.9469 21.5394 33.8924 22.2723 34.5799 23.2671C35.2675 24.2619 35.736 25.3984 35.9857 26.6766C36.2753 27.9545 36.4257 29.3334 36.4369 30.8133L36.4554 33.2732C36.4684 34.9932 36.1603 36.5756 35.5312 38.0204C34.9418 39.4248 34.011 40.6519 32.7389 41.7015C31.5064 42.7108 29.9524 43.5026 28.0766 44.0767C26.2409 44.6506 24.1031 44.9467 21.6631 44.9651C19.0232 44.985 16.4598 44.5443 13.973 43.643C11.5261 42.7415 9.3359 41.3979 7.40238 39.6125C5.46887 37.827 3.91203 35.5987 2.73185 32.9275C1.59168 30.256 1.00833 27.1603 0.981789 23.6404C0.955252 20.1205 1.49187 17.0164 2.59163 14.328C3.73139 11.6393 5.25446 9.38779 7.16084 7.57337C9.06721 5.75895 11.237 4.40255 13.6703 3.50418C16.1433 2.56551 18.6998 2.08622 21.3397 2.06632C23.0197 2.05365 24.5011 2.24249 25.7841 2.63283C27.1068 2.98287 28.2301 3.41441 29.154 3.92746C30.0779 4.44051 30.8219 4.97492 31.3861 5.53068C31.99 6.04614 32.3932 6.46311 32.5956 6.7816C32.4374 7.0228 32.2791 7.244 32.1206 7.4452C31.9621 7.6464 31.8036 7.8476 31.6451 8.0488C31.5263 8.2097 31.3672 8.3309 31.1678 8.4124C30.73 8.69571 30.211 8.83963 29.6111 8.84416C29.0511 8.84838 28.5305 8.7723 28.0493 8.61592C27.5678 8.41955 27.0263 8.22362 26.4248 8.02815C25.8633 7.83238 25.182 7.65751 24.3808 7.50355C23.5793 7.30958 22.5786 7.21713 21.3786 7.22617C19.8187 7.23793 18.2811 7.56953 16.766 8.22097C15.2909 8.87212 13.9583 9.86219 12.7683 11.1912C11.5783 12.5202 10.6311 14.2274 9.9268 16.3128C9.2222 18.3581 8.88045 20.7808 8.90156 23.5807C8.92297 26.4206 9.30136 28.8578 10.0367 30.8924C10.7721 32.9269 11.7449 34.6196 12.9551 35.9705C14.165 37.2814 15.5124 38.2513 16.9971 38.8801C18.5219 39.5086 20.0643 39.817 21.6242 39.8052C23.2642 39.7929 24.5828 39.6029 25.5801 39.2354C26.617 38.8276 27.4129 38.2816 27.9678 37.5974C28.5226 36.9132 28.8964 36.0903 29.0892 35.1288C29.2817 34.1274 29.3734 33.0266 29.3643 31.8267L29.3421 28.8868C29.3376 28.2868 29.2737 27.7672 29.1504 27.3282C28.9874 26.9294 28.7453 26.6512 28.4241 26.4936C28.2632 26.3748 27.9224 26.2774 27.4018 26.2013L25.9619 26.2122L24.7019 26.2217ZM40.9455 29.7593C40.9253 27.0794 41.2888 24.8966 42.0361 23.2109C42.8231 21.4849 43.833 20.1373 45.0657 19.1679C46.2985 18.1986 47.6736 17.5482 49.1911 17.2168C50.7484 16.845 52.287 16.6534 53.8069 16.642L56.7469 16.6198C56.9532 17.4583 56.9991 18.2379 56.8845 18.9588C56.809 19.5594 56.5334 20.1415 56.0576 20.7051C55.6219 21.2684 54.8844 21.614 53.8454 21.7418C53.166 21.8269 52.4872 21.9921 51.8091 22.2372C51.1706 22.442 50.5935 22.8264 50.0777 23.3903C49.5616 23.9142 49.1274 24.6775 48.7749 25.6802C48.4625 26.6825 48.3126 28.0237 48.3253 29.7037L48.3908 38.4034C48.3999 39.6034 48.4073 40.5834 48.413 41.3433C48.4584 42.063 48.5028 42.6427 48.5461 43.0824C48.5897 43.5621 48.6324 43.9218 48.6743 44.1614C46.2343 44.1798 44.3506 43.694 43.0231 42.704C41.6953 41.674 41.0224 39.959 41.0043 37.5591L40.9455 29.7593ZM80.7904 38.0991C81.2725 38.3755 81.7361 38.852 82.1812 39.5287L82.3626 39.7073L82.1839 39.8887C80.8748 41.3386 79.3035 42.4905 77.4699 43.3443C75.6759 44.1579 73.719 44.5726 71.5991 44.5886C69.7591 44.6025 68.0165 44.2556 66.3711 43.548C64.7654 42.8001 63.3376 41.7708 62.0877 40.4602C60.8781 39.1893 59.9068 37.6966 59.1738 35.9821C58.4806 34.2272 58.1264 32.3498 58.1113 30.3499C58.0963 28.35 58.3822 26.4878 58.9692 24.7633C59.596 22.9985 60.4843 21.4518 61.6343 20.1231C62.7847 18.8343 64.1769 17.8038 65.8112 17.0315C67.4854 16.2588 69.3425 15.8648 71.3824 15.8494C72.5024 15.841 73.7237 16.0118 75.0464 16.3618C76.4087 16.6716 77.6728 17.2021 78.8385 17.9533C80.0039 18.6645 80.9711 19.6173 81.7401 20.8115C82.5091 22.0057 82.9 23.4428 82.9126 25.1228C82.925 26.7627 82.5151 28.1059 81.683 29.1522C80.8505 30.1585 79.8566 30.966 78.7012 31.5747C77.5454 32.1434 76.3085 32.5528 74.9903 32.8027C73.7119 33.0124 72.5926 33.1208 71.6327 33.128C70.1527 33.1392 68.8521 33.069 67.731 32.9175C66.6495 32.7256 65.9085 32.5912 65.5079 32.5142C65.6787 33.953 66.0076 35.1305 66.4945 36.0469C66.9811 36.9232 67.5264 37.6191 68.1303 38.1346C68.7342 38.6501 69.3369 39.0055 69.9384 39.201C70.5396 39.3565 71.0802 39.4324 71.5602 39.4288C72.4001 39.4224 73.1995 39.3364 73.9583 39.1707C74.7171 39.005 75.3957 38.8198 75.9942 38.6153C76.5926 38.4108 77.1511 38.2066 77.6696 38.0027C78.2281 37.7985 78.7673 37.6944 79.2873 37.6905C79.8473 37.6862 80.3483 37.8225 80.7904 38.0991ZM71.4208 20.9493C70.9812 20.9926 70.4621 21.1165 69.8636 21.321C69.2648 21.4856 68.6673 21.8101 68.0709 22.2946C67.5145 22.7788 66.9997 23.4627 66.5263 24.3463C66.053 25.2299 65.7214 26.3524 65.5317 27.7139C66.1732 27.9091 67.0746 28.1023 68.2361 28.2935C69.4373 28.4445 70.6174 28.4556 71.7765 28.3268C72.9755 28.1978 74.0129 27.85 74.8887 27.2833C75.8044 26.7164 76.2973 25.7727 76.3674 24.4521C76.4399 23.4515 76.0334 22.5946 75.148 21.8812C74.3026 21.1676 73.0602 20.8569 71.4208 20.9493ZM109.911 37.8796C110.393 38.156 110.856 38.6325 111.301 39.3092L111.483 39.4878L111.304 39.6691C109.995 41.1191 108.424 42.2709 106.59 43.1248C104.796 43.9383 102.839 44.3531 100.719 44.3691C98.8794 44.383 97.1367 44.0361 95.4913 43.3285C93.8857 42.5805 92.4579 41.5513 91.2079 40.2407C89.9983 38.9698 89.027 37.477 88.2941 35.7625C87.6008 34.0077 87.2467 32.1303 87.2316 30.1304C87.2165 28.1304 87.5025 26.2682 88.0895 24.5437C88.7162 22.779 89.6046 21.2322 90.7546 19.9035C91.9049 18.6148 93.2972 17.5843 94.9314 16.8119C96.6056 16.0393 98.4627 15.6453 100.503 15.6299C101.623 15.6215 102.844 15.7923 104.167 16.1423C105.529 16.452 106.793 16.9825 107.959 17.7337C109.124 18.445 110.091 19.3977 110.86 20.592C111.629 21.7862 112.02 23.2233 112.033 24.9032C112.045 26.5432 111.635 27.8863 110.803 28.9326C109.971 29.9389 108.977 30.7464 107.821 31.3552C106.666 31.9239 105.429 32.3332 104.111 32.5832C102.832 32.7928 101.713 32.9013 100.753 32.9085C99.273 32.9197 97.9724 32.8495 96.8512 32.6979C95.7698 32.5061 95.0287 32.3716 94.6281 32.2947C94.799 33.7334 95.1279 34.911 95.6148 35.8273C96.1014 36.7037 96.6467 37.3996 97.2506 37.915C97.8545 38.4305 98.4572 38.786 99.0587 38.9814C99.6599 39.1369 100.2 39.2128 100.68 39.2092C101.52 39.2029 102.32 39.1169 103.079 38.9511C103.837 38.7854 104.516 38.6003 105.114 38.3958C105.713 38.1913 106.271 37.987 106.79 37.7831C107.348 37.5789 107.888 37.4748 108.408 37.4709C108.968 37.4667 109.469 37.6029 109.911 37.8796ZM100.541 20.7298C100.101 20.7731 99.5823 20.897 98.9839 21.1015C98.3851 21.266 97.7875 21.5905 97.1912 22.075C96.6348 22.5593 96.1199 23.2432 95.6466 24.1267C95.1732 25.0103 94.8417 26.1329 94.6519 27.4943C95.2934 27.6895 96.1949 27.8827 97.3564 28.074C98.5576 28.2249 99.7377 28.236 100.897 28.1073C102.096 27.9782 103.133 27.6304 104.009 27.0638C104.925 26.4969 105.418 25.5531 105.488 24.2326C105.56 23.232 105.154 22.375 104.268 21.6617C103.423 20.948 102.18 20.6374 100.541 20.7298ZM116.701 28.5281C116.681 25.8482 117.045 23.6654 117.792 21.9797C118.579 20.2538 119.569 18.9062 120.762 17.9372C121.994 16.9679 123.37 16.3175 124.887 15.9861C126.444 15.6143 128.003 15.4226 129.563 15.4108C131.083 15.3993 132.624 15.5677 134.187 15.916C135.749 16.2242 137.154 16.8536 138.401 17.8042C139.688 18.7546 140.719 20.0868 141.491 21.8011C142.304 23.475 142.721 25.6519 142.741 28.3318L143.095 43.4496C140.655 43.468 138.771 42.9622 137.443 41.9322C136.115 40.9021 135.442 39.2072 135.425 36.8472L135.421 28.387C135.408 26.7071 135.218 25.3685 134.851 24.3712C134.523 23.3336 134.077 22.537 133.513 21.9812C132.948 21.3855 132.325 20.9901 131.644 20.7953C130.962 20.6004 130.281 20.5055 129.601 20.5107C128.921 20.5158 128.242 20.6209 127.564 20.826C126.925 21.0309 126.328 21.4354 125.773 22.0396C125.257 22.6035 124.823 23.4068 124.471 24.4495C124.158 25.4518 124.009 26.793 124.021 28.473L124.091 37.7727C124.14 38.9724 124.168 39.9522 124.174 40.7122C124.219 41.4718 124.264 42.0715 124.307 42.5112C124.351 42.9909 124.393 43.3506 124.435 43.5903C121.955 43.609 120.051 43.1033 118.724 42.0733C117.396 41.0433 116.723 39.3483 116.705 36.9884L116.701 28.5281Z" fill="#4DBD49"/>
<path d="M155.564 37.5354C155.573 38.7354 155.58 39.7154 155.586 40.4753C155.632 41.235 155.676 41.8347 155.719 42.2744C155.763 42.7541 155.806 43.1138 155.848 43.3534C153.408 43.3718 151.524 42.886 150.196 41.896C148.869 40.866 148.196 39.151 148.178 36.7511L147.934 12.3322C147.913 9.5723 148.337 7.42905 149.205 5.90246C149.639 5.09916 150.154 4.45526 150.751 3.97075C151.347 3.48624 152.024 3.08112 152.781 2.7554C153.3 2.55149 153.839 2.38742 154.398 2.2632C154.957 2.09899 155.556 1.97447 156.195 1.88964C157.034 1.80331 157.914 1.73668 158.834 1.68975C159.753 1.64281 160.713 1.61557 161.713 1.60803L166.993 1.56823C169.553 1.54893 171.392 1.49506 172.512 1.40662C173.631 1.31817 174.351 1.25275 174.67 1.21034L174.79 1.20943L175.15 1.20672L175.153 1.56671C175.163 2.92667 174.931 3.98845 174.457 4.75205C174.063 5.55504 173.448 6.1797 172.611 6.62602C171.854 7.03174 171.016 7.27806 170.097 7.36499C169.177 7.45193 168.258 7.49886 167.338 7.5058L157.138 7.5827C156.738 7.62571 156.399 7.72827 156.12 7.89038C155.881 8.01218 155.702 8.17354 155.584 8.37444C155.347 8.81623 155.232 9.47712 155.239 10.3571L155.354 17.6764L170.234 17.5643C170.247 19.3642 169.758 20.8079 168.766 21.8954C167.774 22.9829 166.358 23.5336 164.519 23.5475L155.399 23.6163L155.564 37.5354ZM193.566 18.7084C194.077 17.4245 194.81 16.5589 195.767 16.1117C196.723 15.6245 197.661 15.3374 198.581 15.2505C199.66 15.1623 200.801 15.2537 202.003 15.5247C199.489 21.7038 197.231 27.241 195.228 32.1362C194.363 34.2228 193.499 36.2894 192.634 38.336C191.81 40.3822 191.064 42.2279 190.396 43.873C189.728 45.5181 189.159 46.8824 188.687 47.966C188.255 49.0493 188 49.6712 187.921 49.8318C187.371 51.116 186.637 52.0016 185.721 52.4885C184.805 52.9754 183.887 53.2623 182.967 53.3493C181.888 53.4774 180.747 53.366 179.545 53.0151C180.016 51.8915 180.527 50.6676 181.077 49.3434C181.548 48.1798 182.078 46.8358 182.667 45.3113C183.296 43.8265 183.964 42.2414 184.671 40.5561C184.549 40.277 184.284 39.699 183.878 38.822C183.511 37.9447 183.063 36.8881 182.534 35.652C182.045 34.4157 181.474 33.0799 180.824 31.6448C180.213 30.1694 179.601 28.6939 178.99 27.2185C177.524 23.7495 175.875 19.9218 174.044 15.7355C175.241 15.4464 176.381 15.3378 177.461 15.4097C178.382 15.4828 179.304 15.7558 180.227 16.2289C181.191 16.6616 181.957 17.5159 182.527 18.7916C182.608 18.991 182.812 19.5095 183.139 20.347C183.505 21.1443 183.932 22.1611 184.422 23.3975C184.951 24.6335 185.541 26.0091 186.193 27.5242C186.844 28.9994 187.495 30.4945 188.147 32.0096C188.854 30.3242 189.522 28.7192 190.15 27.1944C190.779 25.6696 191.329 24.3054 191.8 23.1018C192.31 21.8979 192.703 20.915 192.977 20.1529C193.291 19.3505 193.488 18.869 193.566 18.7084Z" fill="black"/>
</svg>
