<svg width="47" height="61" viewBox="0 0 47 61" fill="none" xmlns="http://www.w3.org/2000/svg">
<path fill-rule="evenodd" clip-rule="evenodd" d="M13.8124 58.1827C16.4161 59.7127 19.4257 60.7477 23.0986 60.6667C26.7649 60.7477 29.7811 59.7127 32.3848 58.1827L32.3287 51.6667H13.8685L13.8124 58.1827ZM31.9987 48.6667C31.9987 35.5957 47.2777 31.1227 46.1326 18.1027C45.4132 9.88873 39.2917 0.672729 23.0986 0.672729C6.90548 0.672729 0.783981 9.88873 0.0612811 18.1057C-1.08382 31.1227 14.1985 35.5957 14.1985 48.6667H31.9987ZM6.59858 18.6667C7.28168 10.8727 13.5715 6.66673 23.0986 6.66673C32.6224 6.66673 38.4568 10.7797 39.1399 18.5737C39.5128 22.8457 36.8134 25.6927 33.1702 30.3517C30.484 33.7897 27.8803 37.3807 26.3986 42.6667H19.7986C18.3169 37.3807 15.7132 33.7897 13.0237 30.3487C9.38378 25.6927 6.22238 22.9387 6.59858 18.6667Z" fill="#4DBD49"/>
</svg>
