<svg width="44" height="40" viewBox="0 0 44 40" fill="none" xmlns="http://www.w3.org/2000/svg">
<path d="M28.3004 39V32.6665M13.6009 22.1107L9.40101 17.8884M13.6009 19.9996L17.8008 15.7772M13.6009 39V11.5549M30.4004 5.22143L36.7002 11.5549L32.5003 13.6661L40.9001 22.1107L34.6003 24.2219L43 32.6665H24.1006L30.4004 5.22143ZM9.03142 28.4336C8.11264 28.3796 7.2168 28.1237 6.40692 27.6842C5.59705 27.2446 4.89281 26.632 4.34374 25.8894C3.79467 25.1469 3.4141 24.2923 3.22882 23.386C3.04354 22.4797 3.05804 21.5435 3.27129 20.6435C2.50919 20.0066 1.9074 19.1978 1.51488 18.283C1.12236 17.3682 0.950206 16.3731 1.01242 15.3788C1.07463 14.3845 1.36945 13.4189 1.8729 12.5608C2.37635 11.7026 3.0742 10.9761 3.90967 10.4402C3.17757 9.13268 2.931 7.6063 3.21388 6.13304C3.49676 4.65979 4.29073 3.33535 5.45431 2.3957C6.61789 1.45606 8.07551 0.962249 9.56746 1.00225C11.0594 1.04226 12.4888 1.61348 13.6009 2.61414C14.7132 1.61506 16.1421 1.04519 17.6332 1.00597C19.1244 0.966739 20.5809 1.4607 21.7437 2.39992C22.9066 3.33915 23.7002 4.66271 23.9833 6.13503C24.2665 7.60736 24.0208 9.13293 23.29 10.4402C24.126 10.9756 24.8244 11.7019 25.3283 12.56C25.8322 13.4181 26.1274 14.3837 26.1898 15.3782C26.2522 16.3727 26.0801 17.3679 25.6875 18.2829C25.2949 19.1979 24.6929 20.0067 23.9305 20.6435C24.1509 21.574 24.1588 22.5427 23.9536 23.4768C23.7483 24.4109 23.3353 25.2861 22.7454 26.0368C22.1556 26.7874 21.4043 27.394 20.5479 27.8109C19.6915 28.2279 18.7523 28.4444 17.8008 28.4442H9.40101L9.03142 28.4336Z" stroke="#4DBD49" stroke-width="2" stroke-linecap="round" stroke-linejoin="round"/>
</svg>
