<?xml version="1.0" standalone="no"?>
<!DOCTYPE svg PUBLIC "-//W3C//DTD SVG 20010904//EN"
 "http://www.w3.org/TR/2001/REC-SVG-20010904/DTD/svg10.dtd">
<svg version="1.0" xmlns="http://www.w3.org/2000/svg"
 width="1080.000000pt" height="1098.000000pt" viewBox="0 0 1080.000000 1098.000000"
 preserveAspectRatio="xMidYMid meet">

<g transform="translate(0.000000,1098.000000) scale(0.100000,-0.100000)"
fill="#000000" stroke="none">
<path d="M5317 10784 c-3 -4 0 -21 7 -39 10 -24 11 -36 3 -44 -15 -15 -34 -14
-41 4 -3 8 -12 15 -20 15 -8 0 -21 9 -29 20 -13 19 -14 19 -78 1 -35 -10 -100
-38 -144 -61 -44 -24 -93 -50 -110 -59 -17 -8 -71 -18 -122 -21 -51 -3 -95 -9
-98 -12 -3 -3 8 -11 25 -18 16 -7 30 -16 30 -21 0 -5 -16 -29 -35 -55 -42 -54
-43 -64 -10 -64 14 0 25 -5 25 -11 0 -6 5 -9 11 -7 14 5 12 23 -3 23 -24 0
-19 25 8 35 15 6 28 9 29 8 20 -25 21 -45 4 -67 -10 -13 -19 -30 -19 -38 0
-13 -3 -13 -15 -3 -9 7 -26 10 -42 6 -16 -4 -41 -9 -57 -11 -28 -5 -40 -15
-49 -40 -2 -6 -14 -5 -29 4 -68 36 -252 -38 -420 -170 -101 -80 -127 -109 -93
-109 9 0 12 -6 8 -16 -4 -11 -15 -15 -35 -12 -24 4 -30 0 -35 -20 -4 -19 0
-29 18 -43 13 -10 18 -19 12 -19 -26 0 -11 -44 39 -116 38 -55 57 -74 74 -74
13 0 26 -5 30 -11 4 -7 22 -9 49 -5 45 7 73 -10 61 -39 -11 -30 -103 -7 -132
33 -6 8 -16 12 -23 8 -13 -8 17 -57 54 -88 11 -10 15 -17 8 -18 -15 0 -18 -30
-4 -30 5 0 15 -17 21 -37 7 -21 21 -45 32 -54 12 -10 25 -41 34 -84 8 -38 25
-83 37 -99 13 -17 33 -62 45 -101 12 -39 39 -92 60 -120 70 -94 75 -103 63
-137 -12 -35 -2 -61 30 -78 37 -20 67 26 89 135 6 33 14 71 17 85 3 14 6 41 7
61 1 20 8 43 16 52 36 39 41 48 33 60 -4 6 -9 21 -10 32 -2 11 -6 27 -10 35
-8 19 -13 60 -7 60 3 0 14 -9 26 -20 29 -27 68 -27 68 1 0 28 32 22 45 -9 12
-27 40 -25 40 2 0 13 13 24 43 35 39 14 45 14 76 -3 19 -10 39 -16 44 -12 5 3
17 31 26 63 25 84 49 133 65 133 8 0 23 8 33 17 13 12 33 16 66 14 26 -1 60 2
75 8 28 11 38 41 13 41 -8 0 -18 5 -22 11 -5 8 5 9 34 4 39 -6 40 -6 47 27 8
36 20 48 49 48 11 0 27 7 36 15 21 19 50 10 50 -16 0 -12 -7 -19 -20 -19 -17
0 -19 -5 -13 -32 3 -18 15 -43 26 -56 18 -19 19 -26 9 -43 -18 -28 6 -35 60
-16 31 10 49 11 66 4 12 -6 26 -7 30 -2 4 4 1 10 -5 12 -16 6 -17 39 -3 48 15
9 40 -14 40 -35 0 -10 -6 -20 -12 -23 -22 -7 11 -37 41 -37 31 0 63 -33 54
-56 -8 -22 -129 -64 -184 -64 -29 0 -138 -52 -175 -83 -33 -28 -121 -71 -169
-83 -17 -4 -39 -13 -50 -20 -11 -8 -32 -14 -47 -14 -42 0 -39 -8 35 -89 46
-50 197 -191 205 -191 5 0 25 -13 43 -30 38 -33 36 -33 170 -32 81 1 105 5
153 27 31 14 61 23 67 19 17 -10 86 26 98 52 9 21 33 30 64 25 4 -1 10 6 13
14 4 8 12 15 20 15 10 0 14 -15 14 -59 0 -33 5 -63 10 -66 6 -4 8 -14 6 -23
-3 -10 -6 -53 -7 -97 -2 -74 -4 -82 -32 -112 -28 -30 -29 -34 -19 -73 9 -37 8
-45 -10 -65 -12 -14 -27 -21 -38 -18 -12 3 -22 -3 -29 -16 -15 -27 -43 -42
-116 -58 -33 -8 -70 -17 -82 -20 -18 -4 -23 1 -31 31 -6 20 -30 79 -54 131
l-43 94 -52 1 c-28 0 -63 4 -78 10 -30 12 -100 -12 -115 -40 -8 -14 -5 -16 15
-12 l25 4 -23 -41 c-22 -40 -22 -40 -30 -16 -9 27 -18 30 -45 16 -9 -5 -29
-14 -44 -20 -16 -6 -28 -18 -28 -28 0 -19 44 -73 59 -73 5 0 24 -38 42 -85 18
-47 37 -85 41 -85 14 0 8 -48 -9 -79 -10 -17 -25 -31 -34 -31 -16 0 -59 -67
-59 -92 0 -8 -12 -28 -26 -43 -25 -27 -24 -35 8 -47 3 -2 8 -12 10 -23 2 -15
-2 -19 -17 -18 -25 3 -118 -26 -126 -39 -4 -6 -17 -8 -29 -6 -21 3 -56 52 -72
99 -5 14 -38 0 -38 -16 0 -14 -87 -101 -98 -98 -4 1 -14 -4 -22 -11 -8 -8 -41
-16 -73 -20 -57 -6 -58 -6 -94 31 -19 21 -44 50 -55 66 -11 15 -25 27 -31 26
-31 -4 -36 2 -31 30 6 27 3 30 -32 40 -27 8 -40 7 -45 -1 -4 -6 -13 -7 -20 -3
-8 5 -11 5 -7 1 4 -5 -3 -24 -15 -44 -11 -21 -23 -57 -26 -81 -9 -64 -33 -76
-71 -33 -33 36 -40 39 -40 16 0 -9 -7 -14 -16 -12 -19 4 -63 128 -64 179 0 41
-23 71 -34 43 -3 -8 -6 -26 -6 -39 0 -56 -20 -69 -53 -32 -13 15 -21 18 -24
10 -9 -26 -44 -14 -58 21 -10 23 -23 36 -42 40 -110 27 -105 23 -101 69 3 37
0 42 -19 45 -14 2 -23 11 -25 25 -3 19 -9 22 -55 22 -53 1 -157 40 -147 56 3
5 -6 14 -20 20 -27 13 -31 26 -41 131 -7 68 1 107 33 176 8 19 20 31 28 28 31
-12 35 101 4 129 -11 10 -20 24 -20 30 0 7 -7 16 -16 19 -23 9 -34 7 -34 -5 0
-6 -10 -19 -22 -30 -20 -16 -20 -18 -5 -19 11 0 17 -8 17 -24 0 -13 6 -27 13
-30 6 -3 2 -3 -10 0 -23 5 -50 -27 -38 -46 4 -6 12 -48 18 -94 15 -99 7 -129
-30 -120 -13 4 -37 1 -53 -6 -26 -11 -34 -9 -72 13 -39 22 -92 32 -86 15 2 -3
-7 -18 -20 -31 -29 -31 -26 -63 9 -90 26 -19 28 -19 64 -1 21 10 40 26 43 36
2 10 12 18 22 18 32 0 60 -36 70 -90 9 -47 8 -56 -16 -95 -32 -55 -40 -61 -92
-70 -55 -9 -83 -50 -107 -156 -16 -71 -20 -78 -58 -103 -48 -30 -56 -31 -124
-11 -55 16 -93 59 -93 104 0 28 -24 75 -64 126 -17 21 -36 48 -42 60 -7 13
-18 19 -35 17 -13 -1 -55 -6 -94 -10 -38 -4 -75 -11 -82 -15 -6 -4 -35 -12
-64 -17 -66 -13 -122 -51 -167 -112 -18 -27 -40 -48 -48 -48 -25 0 -15 -15 18
-28 71 -28 193 -62 206 -57 19 7 92 -15 115 -33 9 -8 17 -21 17 -28 0 -7 9
-18 20 -24 18 -10 19 -13 5 -34 -8 -13 -28 -29 -43 -36 l-27 -13 25 -7 c22 -7
75 -16 192 -35 42 -6 84 -51 90 -95 2 -19 10 -26 30 -28 28 -3 32 0 79 66 55
79 101 74 177 -21 8 -12 30 -16 75 -17 76 -1 104 -4 113 -13 4 -4 26 -7 48 -7
23 0 58 -5 79 -11 24 -6 49 -7 65 -2 53 18 108 0 152 -47 41 -44 48 -60 29
-60 -6 0 -17 -6 -25 -14 -10 -10 -43 -15 -121 -15 -60 -1 -119 -2 -133 -3 -14
-1 -82 6 -153 16 -70 10 -135 15 -146 11 -20 -6 -53 3 -47 14 3 4 -9 8 -25 9
-29 2 -39 -13 -20 -33 4 -6 5 -36 2 -67 -13 -105 -77 -129 -151 -58 -23 22
-49 40 -59 40 -9 0 -23 6 -30 13 -11 9 -14 9 -18 0 -3 -8 -14 -11 -29 -7 -13
3 -36 2 -51 -3 -35 -12 -53 -7 -53 16 0 22 -52 61 -80 61 -12 0 -30 -10 -41
-22 -20 -24 -25 -58 -9 -58 15 0 24 -68 10 -84 -8 -11 -8 -20 -1 -34 10 -20
79 -32 176 -32 33 0 53 -9 103 -46 51 -38 67 -45 90 -39 15 4 76 6 136 6 134
-2 305 30 351 64 40 31 104 31 141 2 23 -18 27 -18 21 -4 -3 9 -2 17 2 17 5 0
12 -6 14 -12 4 -10 6 -10 6 -1 1 7 18 20 38 28 20 9 53 32 73 53 47 47 78 72
90 72 6 0 10 3 10 8 0 9 29 26 185 109 160 86 210 108 275 123 30 7 67 17 81
22 14 5 61 13 105 17 45 5 101 18 129 31 80 36 297 111 338 117 20 3 40 9 43
14 10 17 34 9 34 -11 0 -11 -11 -43 -24 -72 -59 -128 -85 -275 -92 -528 -3
-107 -9 -208 -13 -225 -8 -31 -8 -32 -121 -50 -19 -3 -57 -10 -85 -15 -27 -5
-86 -14 -130 -21 -44 -6 -120 -24 -169 -40 -49 -16 -99 -29 -110 -29 -12 0
-48 -12 -81 -25 -33 -14 -70 -25 -82 -25 -13 0 -23 -4 -23 -10 0 -5 -12 -13
-27 -16 -60 -15 -272 -137 -290 -168 -23 -38 -309 -156 -378 -156 -13 0 -27
-5 -30 -11 -4 -6 -22 -9 -40 -8 -18 2 -40 -3 -49 -10 -9 -7 -26 -11 -37 -8
-25 7 -200 -46 -239 -71 -14 -9 -36 -18 -50 -20 -40 -5 -44 -19 -14 -38 16
-10 31 -19 33 -20 2 -2 -4 -10 -13 -19 -20 -20 -81 -31 -90 -16 -4 6 -12 11
-19 11 -8 0 -8 -3 1 -12 10 -10 7 -15 -10 -25 -23 -12 -23 -12 5 -13 15 0 27
4 27 9 0 12 24 12 119 -1 142 -19 306 -86 409 -167 51 -40 76 -50 86 -32 3 5
17 12 31 15 14 4 76 31 138 62 61 30 114 55 117 56 3 0 14 4 25 8 49 19 88 22
112 9 19 -10 28 -10 43 -1 11 7 33 12 49 12 16 0 42 5 58 11 19 7 29 7 31 0 2
-6 11 -11 20 -11 14 0 15 2 3 9 -12 8 -10 12 11 22 18 7 28 21 30 38 2 21 12
29 49 41 26 8 53 21 62 28 8 7 19 12 23 11 23 -5 93 15 98 27 6 15 42 19 50 6
7 -12 157 -5 169 7 6 6 24 4 49 -5 28 -10 45 -11 59 -4 10 6 19 8 19 4 0 -3 6
-1 13 5 20 16 57 -12 40 -30 -21 -22 -15 -27 25 -22 30 4 49 -2 101 -33 61
-37 65 -40 111 -138 26 -56 57 -132 70 -171 12 -38 31 -86 41 -105 23 -45 48
-103 94 -220 73 -189 110 -255 258 -468 24 -34 47 -65 50 -68 6 -7 48 17 102
57 22 16 51 37 65 46 14 10 45 33 70 53 25 20 82 62 127 93 90 61 220 165 268
213 39 40 133 145 230 259 190 220 346 366 505 471 99 65 115 83 152 164 19
41 57 104 84 138 93 121 94 123 94 170 0 56 -34 130 -66 142 -52 20 -94 159
-94 306 1 141 29 242 107 386 39 72 126 196 169 243 11 11 32 37 47 58 16 20
61 71 100 111 88 90 118 100 205 66 31 -12 96 -28 144 -36 97 -16 200 -53 267
-97 46 -30 70 -29 78 2 4 15 14 19 51 19 64 0 166 -17 173 -30 13 -21 29 32
33 104 3 59 7 75 25 90 13 9 20 22 16 28 -3 5 -1 10 4 10 6 0 11 -7 11 -15 0
-10 11 -15 35 -15 30 0 35 3 35 24 0 28 -19 38 -58 30 -34 -6 -43 2 -61 46
-44 115 -64 199 -69 291 -3 66 0 83 20 119 53 98 61 107 101 116 l32 7 -30 9
c-16 5 -46 8 -65 6 -35 -2 -51 8 -117 70 -13 12 -30 22 -38 22 -9 0 -15 10
-15 24 0 14 -4 28 -10 31 -14 9 -13 118 2 133 16 16 15 122 -1 206 -16 81 -56
133 -105 138 -25 3 -30 -1 -37 -26 -4 -16 -18 -39 -30 -52 -18 -19 -20 -28
-12 -51 10 -29 9 -107 -2 -178 -5 -32 -2 -44 15 -62 11 -13 27 -23 34 -23 22
0 26 -37 6 -60 -9 -11 -21 -20 -25 -20 -14 0 -34 -35 -35 -61 0 -32 34 -69 64
-69 13 0 31 11 42 25 10 14 22 25 25 25 11 0 29 -89 33 -165 5 -89 -3 -155
-19 -155 -26 0 -34 -76 -19 -193 8 -61 17 -117 19 -124 2 -7 0 -15 -6 -19 -6
-4 -6 -11 2 -20 9 -11 9 -21 0 -40 -6 -15 -9 -34 -6 -44 3 -10 1 -21 -5 -25
-5 -3 -10 -15 -10 -26 0 -10 -2 -19 -5 -19 -3 0 -31 27 -62 61 -87 92 -225
172 -366 211 -28 7 -53 21 -59 32 -22 41 -91 106 -125 117 -24 8 -71 9 -147 4
-96 -6 -114 -4 -125 9 -9 11 -30 16 -68 16 -44 0 -58 -4 -72 -22 -19 -23 -41
-18 -41 10 0 10 -16 50 -35 91 -38 78 -42 92 -23 73 7 -7 23 -12 36 -12 14 0
34 -11 46 -24 11 -13 32 -27 45 -31 21 -6 23 -5 16 11 -4 11 -10 29 -12 42 -3
12 -12 22 -19 22 -9 0 -14 11 -14 30 0 18 -6 33 -15 36 -8 4 -15 13 -15 20 0
41 -97 174 -127 174 -15 0 -17 16 -3 25 15 9 12 58 -6 83 -24 35 -10 106 30
138 41 35 45 49 35 114 -7 44 -5 57 8 72 19 21 23 89 6 95 -9 3 -13 -8 -13
-39 0 -48 -7 -61 -33 -71 -11 -4 -20 -1 -23 8 -7 17 -93 11 -134 -9 -14 -7
-33 -11 -42 -9 -11 3 -18 -1 -18 -9 0 -24 -21 -38 -40 -28 -13 7 -21 5 -30 -5
-9 -11 -7 -16 9 -24 11 -6 27 -11 35 -11 18 0 86 -68 86 -87 0 -7 5 -13 10
-13 6 0 20 -21 30 -47 11 -27 25 -57 31 -67 6 -11 13 -45 14 -77 2 -49 -1 -61
-23 -84 -24 -26 -24 -28 -8 -55 25 -43 19 -57 -11 -28 -16 15 -62 49 -103 76
-41 27 -95 65 -118 85 -24 21 -53 37 -64 37 -10 0 -40 -16 -66 -36 -46 -35
-103 -64 -127 -64 -15 0 -39 76 -28 93 4 6 17 23 29 37 55 62 63 73 69 100 3
16 13 34 20 40 8 6 17 32 21 56 3 24 10 44 15 44 14 0 10 -62 -5 -79 -33 -38
-12 -171 27 -171 39 0 48 56 21 131 -16 43 -16 49 1 101 14 47 15 66 6 124 -6
42 -16 71 -26 76 -21 12 -19 25 5 31 24 6 27 45 4 54 -8 3 -26 1 -39 -5 -23
-10 -27 -7 -59 36 -91 124 -108 138 -161 128 -30 -6 -37 -13 -52 -57 -20 -55
-39 -61 -60 -19 -20 39 -16 87 8 111 l22 22 -32 127 c-42 173 -42 182 17 237
26 25 64 54 85 64 43 22 48 48 18 93 l-19 29 -16 -29 c-9 -16 -27 -42 -41 -59
-21 -25 -27 -28 -35 -15 -5 8 -10 21 -10 28 0 22 20 53 31 47 5 -4 9 -1 9 5 0
6 11 15 24 21 44 20 70 169 30 169 -8 0 -14 -7 -14 -15 0 -17 -25 -20 -35 -5
-10 16 -19 12 -30 -12 -6 -13 -21 -24 -35 -26 -45 -7 -62 -31 -55 -80 6 -41 5
-43 -17 -40 -13 2 -27 13 -33 26 -10 22 -35 31 -35 12 0 -18 -28 -11 -44 11
-9 14 -21 19 -33 15 -16 -5 -19 0 -20 33 -2 34 1 40 20 43 20 3 19 6 -18 41
-22 20 -53 44 -70 53 -50 26 -72 39 -88 52 -8 7 -39 21 -68 31 -37 12 -55 24
-58 37 -8 43 -61 68 -61 28 0 -10 -9 -12 -32 -7 -18 3 -37 10 -42 14 -6 5 -36
9 -67 9 -63 0 -134 25 -181 65 -31 26 -40 29 -51 19z m-135 -96 c-6 -6 -16 -7
-22 -3 -9 6 -9 9 1 16 17 10 34 0 21 -13z m94 -22 c18 -19 18 -88 -2 -173 -17
-74 -40 -106 -101 -138 -90 -47 -118 -70 -118 -95 0 -17 9 -29 26 -37 30 -15
55 -41 46 -49 -3 -4 -27 -9 -52 -11 -30 -4 -53 -13 -68 -30 -24 -25 -54 -41
-132 -69 -27 -9 -57 -23 -66 -31 -8 -7 -23 -13 -31 -13 -9 0 -23 -11 -32 -25
-10 -14 -30 -27 -51 -31 -20 -3 -41 -14 -48 -24 -6 -9 -30 -23 -52 -30 -22 -7
-52 -23 -67 -36 -23 -19 -25 -24 -13 -34 29 -24 15 -31 -46 -26 -34 4 -69 2
-79 -4 -11 -6 -57 -13 -101 -17 -68 -5 -79 -8 -65 -18 27 -20 -5 -26 -64 -12
-56 13 -62 22 -25 39 24 11 29 20 26 46 -3 21 20 43 43 41 43 -3 52 2 116 63
64 61 65 63 63 111 -2 37 5 62 30 109 17 33 42 67 54 75 13 9 23 20 23 26 0
14 32 36 54 37 16 0 17 -6 12 -47 -4 -27 -7 -59 -9 -72 -1 -15 -16 -33 -39
-49 -21 -13 -38 -29 -38 -33 0 -14 23 -11 47 6 17 12 23 12 32 1 6 -7 8 -15 5
-19 -7 -7 78 -20 102 -15 13 2 18 11 16 25 -2 18 4 24 35 32 21 6 49 11 63 12
l25 1 -27 10 c-36 13 -35 26 2 39 17 6 30 14 30 17 0 4 22 8 49 9 37 1 68 12
124 43 41 22 81 47 87 55 7 8 17 15 23 15 5 0 26 12 45 26 l35 27 -24 12 c-13
7 -30 11 -38 8 -13 -4 -13 -3 -2 5 17 12 -3 27 -24 18 -23 -9 -18 2 28 55 52
60 92 68 108 19 9 -24 13 -27 24 -17 7 7 16 29 19 48 4 19 12 44 19 57 8 16 8
25 0 30 -12 8 -28 52 -18 52 4 0 13 -6 21 -14z m924 -402 c0 -8 -4 -12 -10 -9
-5 3 -10 10 -10 16 0 5 5 9 10 9 6 0 10 -7 10 -16z m-1030 -32 c0 -12 -22 -32
-36 -32 -7 0 -12 9 -11 20 1 14 8 20 24 20 13 0 23 -4 23 -8z m1060 -7 c0 -8
-4 -15 -10 -15 -5 0 -10 7 -10 15 0 8 5 15 10 15 6 0 10 -7 10 -15z m-530 -44
c14 -27 13 -51 -3 -51 -17 0 -42 45 -33 59 11 16 24 13 36 -8z m-50 2 c-1 -18
-18 -35 -24 -24 -4 6 -4 16 -1 21 7 12 25 13 25 3z m-530 -403 c0 -18 -3 -19
-20 -10 -22 12 -18 30 6 30 8 0 14 -9 14 -20z m48 -38 c3 -9 -2 -13 -14 -10
-9 1 -19 9 -22 16 -3 9 2 13 14 10 9 -1 19 -9 22 -16z m-284 -57 c-4 -8 -8
-15 -10 -15 -2 0 -4 7 -4 15 0 8 4 15 10 15 5 0 7 -7 4 -15z m294 -15 c-7 -11
-16 -20 -19 -20 -4 0 -5 9 -2 20 3 11 12 20 19 20 12 0 12 -4 2 -20z m542 -62
c0 -5 -4 -8 -10 -8 -5 0 -10 10 -10 23 0 18 2 19 10 7 5 -8 10 -18 10 -22z
m-1202 -138 c25 0 25 -1 9 -17 -13 -13 -19 -14 -29 -5 -7 7 -23 12 -37 12 -21
0 -23 2 -11 10 8 5 21 8 28 5 8 -3 25 -5 40 -5z m172 -24 c0 -11 -19 -15 -25
-6 -3 5 1 10 9 10 9 0 16 -2 16 -4z m1950 -33 c0 -19 -3 -24 -10 -17 -6 6 -8
18 -4 27 9 24 14 21 14 -10z m-3 -95 c-2 -13 -4 -3 -4 22 0 25 2 35 4 23 2
-13 2 -33 0 -45z m-658 -90 c25 -45 25 -47 10 -90 -17 -45 -43 -61 -53 -31
-15 47 -23 149 -13 161 15 19 28 10 56 -40z m-1401 0 c14 -18 3 -113 -12 -98
-12 12 -18 110 -6 110 4 0 12 -6 18 -12z m-28 -228 c0 -11 -4 -20 -10 -20 -5
0 -10 9 -10 20 0 11 5 20 10 20 6 0 10 -9 10 -20z m890 -310 c0 -5 -5 -10 -11
-10 -5 0 -7 5 -4 10 3 6 8 10 11 10 2 0 4 -4 4 -10z m55 -20 c3 -5 1 -10 -4
-10 -6 0 -11 5 -11 10 0 6 2 10 4 10 3 0 8 -4 11 -10z m-311 -105 c-4 -8 -8
-15 -10 -15 -2 0 -4 7 -4 15 0 8 4 15 10 15 5 0 7 -7 4 -15z m-1385 -314 c-15
-5 -22 6 -14 19 6 9 10 9 16 -1 5 -8 4 -15 -2 -18z m1580 -47 c12 -15 21 -33
21 -40 0 -16 -59 -73 -75 -74 -6 0 -19 -9 -28 -21 -18 -20 -19 -20 -38 -3 -10
9 -19 28 -19 42 0 35 78 120 112 122 4 0 16 -12 27 -26z m-1963 -111 c-4 -25
-26 -28 -26 -4 0 12 6 21 14 21 8 0 13 -8 12 -17z m1041 -44 c-14 -8 -22 -8
-30 0 -8 8 -3 11 19 11 25 -1 27 -2 11 -11z m77 -44 c-4 -8 -10 -15 -15 -15
-5 0 -9 7 -9 15 0 8 7 15 15 15 9 0 12 -6 9 -15z m-63 -22 c34 -37 34 -65 1
-81 -14 -6 -32 -12 -39 -12 -11 0 -63 45 -63 55 0 8 59 65 68 65 4 0 20 -12
33 -27z m774 -13 c3 -5 2 -10 -4 -10 -5 0 -13 5 -16 10 -3 6 -2 10 4 10 5 0
13 -4 16 -10z m-720 -150 c3 -5 -1 -10 -10 -10 -9 0 -13 5 -10 10 3 6 8 10 10
10 2 0 7 -4 10 -10z m1100 -961 c10 -15 -1 -23 -20 -15 -9 3 -13 10 -10 16 8
13 22 13 30 -1z"/>
<path d="M4888 10173 c7 -3 16 -2 19 1 4 3 -2 6 -13 5 -11 0 -14 -3 -6 -6z"/>
<path d="M6260 10564 c0 -17 22 -14 28 4 2 7 -3 12 -12 12 -9 0 -16 -7 -16
-16z"/>
<path d="M6110 10490 c0 -5 5 -10 10 -10 6 0 10 5 10 10 0 6 -4 10 -10 10 -5
0 -10 -4 -10 -10z"/>
<path d="M9574 10405 c-3 -8 -16 -17 -27 -21 -23 -7 -57 -41 -57 -55 0 -5 16
-15 35 -23 31 -13 35 -19 35 -53 0 -21 7 -47 15 -57 13 -17 18 -18 60 -6 61
17 87 53 83 116 -3 44 -6 48 -37 59 -18 6 -42 21 -51 33 -21 25 -48 29 -56 7z"/>
<path d="M3466 10224 c-3 -9 -6 -31 -6 -50 0 -29 3 -34 24 -34 14 0 33 -12 48
-30 28 -34 48 -32 72 5 14 21 12 25 -39 74 -56 52 -88 64 -99 35z"/>
<path d="M2115 10170 c-3 -11 -4 -24 0 -30 3 -5 -1 -21 -10 -34 -10 -14 -13
-31 -9 -38 4 -7 11 -28 14 -48 5 -32 8 -35 38 -32 18 2 33 0 33 -5 6 -35 8
-102 4 -120 -4 -18 -12 -23 -35 -23 -17 0 -30 5 -30 10 0 6 -15 10 -34 10 -28
0 -35 4 -41 27 -3 15 -9 22 -13 16 -4 -6 -17 -13 -29 -17 -37 -12 -61 -52 -61
-102 0 -37 4 -48 25 -61 28 -19 73 -105 73 -141 0 -13 -9 -35 -20 -49 -23 -30
-26 -85 -6 -102 19 -16 102 26 110 56 8 29 -2 53 -23 53 -12 0 -17 11 -19 45
-2 37 0 44 13 39 12 -5 14 -14 10 -35 -5 -22 -3 -29 8 -29 17 0 53 49 49 68
-2 6 2 12 8 12 17 0 40 64 40 110 0 41 14 76 39 96 13 10 11 16 -12 44 -25 29
-26 37 -21 88 4 31 10 61 15 67 18 19 8 61 -24 98 -38 45 -82 58 -92 27z"/>
<path d="M3341 10086 c-14 -17 2 -66 23 -66 7 0 16 -8 19 -17 4 -10 13 -27 21
-38 14 -19 13 -26 -14 -80 -45 -90 -40 -105 42 -129 52 -16 103 -3 125 31 14
21 14 30 -7 96 -33 106 -66 167 -90 167 -11 0 -30 11 -42 25 -24 28 -59 33
-77 11z"/>
<path d="M9730 10048 c-14 -5 -34 -7 -47 -3 -23 6 -53 -25 -53 -56 0 -9 -11
-28 -24 -44 l-24 -28 24 -26 25 -26 27 33 c16 20 36 32 50 32 31 0 81 30 88
53 16 50 -18 83 -66 65z"/>
<path d="M8326 9951 c-3 -5 3 -20 14 -32 l19 -24 1 33 c0 31 -21 45 -34 23z"/>
<path d="M8388 9933 c-17 -30 -9 -73 14 -73 7 0 4 -6 -7 -12 -11 -6 -26 -19
-33 -29 -7 -10 -22 -19 -34 -21 -13 -2 -29 -15 -36 -30 -7 -16 -23 -33 -35
-39 -26 -14 -66 -59 -67 -76 0 -6 -9 -18 -20 -26 -32 -23 -5 -44 62 -49 35 -3
65 -11 76 -21 37 -34 71 -14 75 44 2 40 17 58 55 68 35 9 87 107 68 130 -6 7
-11 19 -12 25 0 6 -2 17 -2 24 -1 7 -7 10 -12 7 -19 -11 -38 14 -38 50 0 61
-26 74 -54 28z"/>
<path d="M9010 9635 c0 -11 7 -15 23 -13 12 2 22 8 22 13 0 6 -10 11 -22 13
-16 2 -23 -2 -23 -13z"/>
<path d="M6983 9589 c-18 -16 -33 -34 -33 -39 0 -41 103 -55 147 -20 l25 19
-34 21 c-18 11 -36 20 -40 20 -5 0 -8 7 -8 15 0 24 -22 18 -57 -16z"/>
<path d="M9040 9598 c0 -10 -4 -18 -8 -18 -15 0 -31 -46 -21 -61 12 -19 11
-25 -4 -41 -45 -47 -60 -107 -34 -142 12 -17 15 -16 38 9 13 15 35 37 48 50
22 22 25 33 26 105 1 58 -2 80 -11 80 -7 0 -18 8 -23 18 -10 16 -10 16 -11 0z"/>
<path d="M3374 9444 c-6 -2 -9 -24 -8 -49 2 -36 -2 -50 -20 -68 -22 -22 -23
-26 -12 -86 14 -80 43 -108 84 -87 37 19 57 44 73 89 34 96 -44 231 -117 201z"/>
<path d="M9460 9370 c0 -5 7 -7 15 -4 8 4 15 8 15 10 0 2 -7 4 -15 4 -8 0 -15
-4 -15 -10z"/>
<path d="M4710 9285 c10 -12 9 -15 -5 -15 -13 0 -16 -5 -10 -22 4 -13 8 -34 8
-48 2 -29 22 -55 32 -40 3 6 4 19 0 29 -3 10 -6 40 -7 65 0 34 -5 46 -15 46
-13 0 -13 -3 -3 -15z"/>
<path d="M8792 9200 c-12 -12 -22 -27 -22 -35 0 -8 -5 -15 -11 -15 -5 0 -7 -4
-4 -10 3 -5 0 -7 -8 -4 -16 6 -87 -33 -87 -48 0 -6 -11 -21 -25 -34 -14 -13
-25 -32 -25 -44 0 -32 -1 -34 -16 -51 -8 -9 -12 -27 -10 -40 3 -13 5 -32 5
-41 1 -19 83 -67 88 -52 22 61 65 92 98 70 33 -21 46 -59 34 -94 -6 -17 -16
-33 -23 -35 -7 -3 -18 -23 -26 -46 -12 -37 -11 -46 3 -77 9 -19 17 -46 17 -60
0 -39 23 -75 88 -141 33 -34 47 -39 70 -25 16 11 25 98 14 137 -7 25 -3 41 25
95 18 36 33 73 33 82 0 9 7 21 16 26 25 14 30 119 10 182 -9 28 -16 68 -15 88
1 20 -7 56 -18 80 -17 36 -31 49 -87 78 -78 40 -94 41 -124 14z m-45 -136 c10
-9 18 -39 21 -70 4 -45 1 -55 -13 -60 -44 -17 -67 38 -45 108 12 43 15 44 37
22z m239 -75 l7 -65 -39 -37 c-44 -42 -94 -51 -94 -18 0 11 -9 22 -19 26 -10
3 -21 17 -24 31 -4 20 3 33 32 60 20 18 46 34 58 34 12 0 25 5 28 10 4 6 11 8
16 5 5 -4 9 4 9 16 0 49 21 0 26 -62z"/>
<path d="M9960 9210 c0 -18 31 -60 45 -60 15 0 36 43 27 56 -10 14 -72 17 -72
4z"/>
<path d="M4950 9165 c0 -8 -6 -15 -14 -15 -8 0 -21 -6 -29 -14 -13 -13 -64
-43 -167 -98 -19 -10 -62 -38 -95 -61 -49 -35 -59 -47 -57 -67 3 -26 57 -79
80 -80 6 0 12 -11 12 -24 0 -31 20 -68 56 -104 16 -16 44 -48 63 -71 65 -82
128 -101 185 -56 17 14 36 29 41 33 6 4 18 11 28 15 21 8 22 26 2 33 -11 5 -9
11 10 32 14 15 28 43 32 62 6 36 -8 207 -28 315 -5 33 -11 65 -11 72 -1 6 -23
19 -49 27 -59 20 -59 20 -59 1z"/>
<path d="M4115 9119 c-6 -25 -2 -36 14 -53 18 -18 23 -19 31 -6 5 8 7 17 4 21
-2 4 0 10 6 14 18 11 11 31 -15 43 -34 16 -32 17 -40 -19z"/>
<path d="M9431 9094 c0 -6 -13 -16 -27 -22 -16 -8 -22 -17 -18 -24 4 -7 8 -25
8 -41 1 -36 28 -57 54 -41 23 15 30 94 8 94 -8 0 -17 10 -19 23 -2 12 -5 17
-6 11z"/>
<path d="M760 9026 c0 -9 7 -12 21 -9 16 4 17 8 7 14 -19 13 -28 11 -28 -5z"/>
<path d="M9961 8976 c-25 -67 -20 -98 20 -138 15 -16 30 -28 33 -28 10 0 6 59
-4 65 -5 3 -10 34 -10 68 0 91 -13 101 -39 33z"/>
<path d="M2250 8981 c0 -5 6 -14 14 -20 16 -13 32 2 21 19 -8 12 -35 13 -35 1z"/>
<path d="M894 8916 c-3 -9 -10 -13 -15 -10 -5 3 -9 0 -9 -6 0 -18 -51 -32 -81
-21 -25 9 -31 7 -47 -17 -31 -45 -43 -110 -26 -143 8 -16 14 -34 14 -42 0 -7
18 -28 39 -45 l39 -32 31 29 c17 16 31 35 31 42 0 7 21 34 46 60 l46 46 -16
59 c-9 33 -18 66 -20 73 -4 21 -25 25 -32 7z"/>
<path d="M2102 8862 c-32 -36 -33 -39 -27 -97 3 -33 2 -71 -3 -84 -12 -34 5
-138 29 -178 12 -18 37 -45 58 -59 l36 -24 8 32 c16 61 60 193 68 203 4 6 12
30 18 53 l9 43 -29 -6 c-30 -7 -34 -3 -55 69 -5 16 -18 34 -29 40 -10 6 -26
19 -35 28 -14 16 -17 15 -48 -20z"/>
<path d="M2323 8852 c-2 -39 1 -49 13 -49 28 0 38 41 19 71 -10 14 -20 26 -24
26 -3 0 -7 -22 -8 -48z"/>
<path d="M308 8872 c-7 -11 -22 -24 -33 -30 -44 -23 -137 -120 -133 -138 4
-25 33 -29 72 -11 17 9 50 20 72 26 89 24 114 71 73 137 -24 39 -33 41 -51 16z"/>
<path d="M9652 8822 c-22 -7 -30 -18 -67 -89 -17 -32 -40 -47 -56 -37 -5 3 -9
0 -9 -5 0 -6 -11 -11 -24 -11 -13 0 -27 -7 -30 -16 -9 -23 -8 -27 9 -21 8 4
17 2 20 -3 3 -6 15 -6 30 0 13 5 47 6 75 3 43 -5 53 -10 62 -32 10 -24 12 -22
19 33 5 32 15 67 24 76 17 19 19 48 5 84 -10 27 -18 29 -58 18z"/>
<path d="M3411 8805 c23 -13 39 -11 39 3 0 4 -14 8 -31 8 -32 1 -32 1 -8 -11z"/>
<path d="M10680 8705 c0 -10 30 -65 35 -65 3 0 5 16 5 35 0 28 -4 35 -20 35
-11 0 -20 -2 -20 -5z"/>
<path d="M2940 8664 c0 -14 -33 -70 -50 -84 -3 -3 -13 -20 -22 -39 -17 -36
-13 -70 8 -78 9 -3 12 -16 8 -36 -2 -18 -2 -26 2 -19 3 6 12 12 20 12 18 0 28
42 20 90 -5 34 -4 40 12 40 17 0 62 49 62 68 0 13 -40 62 -51 62 -5 0 -9 -7
-9 -16z"/>
<path d="M1285 8610 c-3 -5 -3 -10 2 -10 4 0 19 -3 33 -7 22 -6 24 -5 11 10
-15 19 -37 22 -46 7z"/>
<path d="M10174 8507 c-11 -30 1 -51 34 -61 17 -5 32 -13 32 -17 0 -5 18 -9
40 -9 22 0 40 3 40 6 0 4 -18 24 -40 45 -46 44 -96 61 -106 36z"/>
<path d="M9486 8476 c-8 -48 -4 -89 10 -111 17 -25 69 -38 84 -20 17 20 -8 78
-50 116 -38 35 -40 35 -44 15z"/>
<path d="M10723 8441 c-13 -13 -23 -27 -23 -30 0 -3 -9 -62 -19 -131 -10 -69
-16 -129 -14 -134 3 -4 31 -20 62 -34 31 -15 59 -28 64 -30 4 -2 7 84 7 191
l0 195 -27 -2 c-16 0 -38 -12 -50 -25z"/>
<path d="M1390 8428 c-7 -16 -21 -28 -30 -28 -23 0 -138 -90 -146 -115 -10
-28 -51 -77 -85 -98 -15 -10 -31 -28 -35 -40 -24 -78 -92 -104 -172 -66 -61
30 -120 31 -151 2 -14 -13 -41 -25 -60 -29 -20 -3 -45 -8 -56 -12 -40 -12 -51
-12 -115 -1 -78 12 -111 3 -135 -38 -28 -47 -80 -71 -143 -64 -9 1 -69 80 -87
114 -5 11 -35 32 -65 48 -30 16 -59 35 -65 41 -5 7 -18 19 -27 27 -17 13 -18
-8 -18 -403 0 -356 2 -416 14 -416 8 0 36 -11 61 -25 46 -24 48 -24 83 -8 47
22 206 28 316 14 101 -14 106 -10 106 80 0 64 -1 69 -24 75 -14 3 -29 3 -34 0
-5 -3 -44 13 -88 34 -43 22 -85 38 -92 35 -20 -7 -52 27 -52 55 0 20 7 29 32
38 57 20 146 26 188 12 50 -16 82 -8 124 35 20 19 40 35 46 35 5 0 10 7 10 15
0 8 9 19 19 25 17 8 24 4 48 -27 15 -20 28 -49 29 -64 1 -16 7 -35 14 -44 25
-30 90 -10 90 27 0 7 11 23 23 35 20 18 39 22 143 28 65 4 131 13 146 20 23
11 29 11 35 1 5 -7 26 -21 48 -30 22 -10 48 -22 57 -27 24 -12 145 -12 153 1
3 6 17 10 31 10 21 0 24 4 24 39 0 31 4 41 20 46 11 3 25 3 30 0 13 -8 40 12
40 29 -1 21 -29 49 -52 50 -14 1 -24 8 -27 21 -2 11 -14 33 -27 48 -31 36 -30
44 6 121 37 77 32 96 -35 146 -57 42 -85 98 -94 190 -7 63 -7 64 -21 38z
m-675 -466 c-11 -11 -28 17 -20 35 5 10 9 21 10 26 7 21 9 19 12 -17 3 -21 2
-41 -2 -44z m425 -11 c14 -10 29 -31 35 -47 5 -16 14 -32 20 -36 6 -4 2 -8 -8
-8 -11 0 -30 -9 -44 -20 -36 -28 -55 -25 -128 18 -41 25 -47 69 -10 78 14 3
30 15 36 26 9 16 17 19 42 14 18 -3 43 -15 57 -25z m-889 -318 c7 -8 14 -36
15 -63 3 -44 0 -51 -27 -74 -54 -46 -112 -30 -129 35 -14 50 2 79 57 107 39
20 65 19 84 -5z"/>
<path d="M10077 8418 c-2 -7 -2 -44 1 -81 4 -53 2 -71 -9 -78 -10 -6 -4 -9 19
-9 30 0 32 2 18 15 -11 12 -14 31 -10 84 3 39 1 72 -5 75 -5 3 -11 0 -14 -6z"/>
<path d="M9911 8370 c0 -19 3 -41 8 -48 15 -25 19 10 5 48 l-12 35 -1 -35z"/>
<path d="M10336 8275 c7 -63 6 -65 -20 -74 -14 -6 -26 -14 -26 -18 1 -5 24
-21 53 -38 33 -19 59 -44 73 -69 20 -35 21 -42 8 -61 -14 -21 -74 -57 -116
-69 -22 -7 -23 -30 -2 -50 12 -13 42 -16 137 -18 67 -1 142 -3 167 -4 25 -1
78 0 118 3 l72 5 0 50 c0 43 -2 49 -15 38 -21 -17 -112 -14 -141 5 -14 9 -29
26 -34 38 -8 22 -8 21 -19 -5 -6 -16 -15 -29 -21 -29 -5 -1 -15 -2 -21 -3 -6
0 -16 -9 -23 -18 -17 -23 -21 -23 -46 4 -31 33 -22 116 16 145 16 12 48 7 39
-6 -2 -4 11 -8 29 -9 26 -1 36 4 47 24 12 24 11 28 -8 43 -11 10 -47 23 -79
30 -33 7 -67 22 -77 32 -10 11 -23 19 -30 19 -7 0 -26 22 -42 50 -17 27 -34
50 -38 50 -4 0 -5 -29 -1 -65z"/>
<path d="M4529 8238 c-1 -49 -7 -113 -14 -144 -6 -26 15 -46 35 -34 11 7 12
19 0 78 -7 39 -10 84 -7 101 4 16 2 33 -3 36 -6 4 -10 -12 -11 -37z"/>
<path d="M9255 8200 c4 -6 11 -8 16 -5 14 9 11 15 -7 15 -8 0 -12 -5 -9 -10z"/>
<path d="M1781 8186 c-8 -10 -13 -40 -25 -156 -6 -53 4 -86 29 -100 27 -15 65
1 65 28 1 9 10 42 21 72 11 30 21 60 22 65 1 6 6 15 10 22 4 6 5 17 2 25 -12
32 -106 66 -124 44z"/>
<path d="M4046 8192 c-3 -6 -1 -14 5 -17 14 -9 20 -2 10 14 -6 8 -11 9 -15 3z"/>
<path d="M9498 8182 c-39 -8 -22 -92 19 -92 12 0 23 4 23 9 0 5 14 11 31 15
34 6 31 26 -4 26 -12 0 -29 10 -37 23 -9 13 -22 21 -32 19z"/>
<path d="M8738 8034 c-13 -13 6 -42 38 -56 32 -15 34 -15 34 4 0 10 -4 17 -9
14 -5 -3 -16 5 -25 19 -16 25 -27 30 -38 19z"/>
<path d="M9869 8004 c-43 -23 -93 -42 -131 -49 -39 -6 -58 -27 -58 -65 0 -17
-3 -19 -18 -11 -10 5 -36 12 -58 15 -21 2 -56 12 -76 20 -36 15 -38 15 -58 -6
-28 -30 -25 -53 10 -68 30 -12 111 -7 160 12 16 6 31 5 46 -3 27 -14 228 4
250 22 18 15 18 50 -2 98 -18 46 -32 54 -65 35z"/>
<path d="M10142 7948 c-6 -6 -12 -25 -12 -40 0 -49 74 -52 96 -3 14 29 5 39
-41 49 -19 4 -35 2 -43 -6z"/>
<path d="M8815 7866 c0 -41 3 -78 7 -82 4 -4 17 4 28 17 15 19 22 21 28 11 10
-15 128 -7 149 10 7 6 29 7 50 4 21 -3 44 -2 52 3 26 17 -12 25 -101 23 -71
-2 -88 0 -88 12 0 22 -25 26 -50 9 -22 -15 -24 -15 -42 6 -10 13 -18 32 -18
42 0 10 -4 19 -8 19 -4 0 -8 -33 -7 -74z"/>
<path d="M9255 7864 c-13 -14 -14 -19 -3 -25 21 -13 62 -10 84 6 16 13 17 16
4 25 -23 15 -67 12 -85 -6z"/>
<path d="M2590 7835 c0 -16 35 -20 64 -9 29 11 16 24 -24 24 -29 0 -40 -4 -40
-15z"/>
<path d="M9170 7840 c0 -5 7 -10 16 -10 8 0 12 5 9 10 -3 6 -10 10 -16 10 -5
0 -9 -4 -9 -10z"/>
<path d="M1785 7820 c-4 -6 -18 -15 -31 -20 -13 -5 -23 -15 -22 -21 2 -7 -15
-16 -37 -21 -22 -5 -48 -19 -57 -31 -9 -12 -22 -22 -27 -22 -6 0 -12 -4 -13
-10 -6 -20 70 -29 145 -17 39 7 99 15 132 18 63 5 145 31 145 45 0 11 -38 23
-80 26 -90 6 -102 10 -113 33 -14 27 -32 36 -42 20z"/>
<path d="M8421 7811 c-22 -17 -22 -18 -6 -57 23 -55 42 -113 49 -154 l6 -35
-20 25 c-11 14 -20 33 -20 43 0 10 -11 22 -25 27 -16 6 -25 17 -25 32 l0 23
-20 -25 c-11 -14 -20 -40 -20 -59 0 -23 -7 -39 -25 -53 -14 -11 -25 -26 -25
-33 0 -13 -20 -66 -41 -107 -5 -10 -9 -25 -9 -33 0 -8 -4 -23 -10 -33 -5 -9
-16 -48 -23 -87 -13 -64 -12 -74 5 -113 10 -24 33 -62 52 -85 19 -23 40 -65
47 -92 7 -27 18 -61 26 -75 27 -52 10 -128 -43 -185 -13 -14 -24 -30 -24 -35
0 -5 -6 -13 -13 -17 -7 -4 -19 -39 -26 -78 -7 -38 -20 -81 -29 -95 -20 -32
-72 -179 -72 -205 0 -11 -11 -36 -24 -55 -54 -80 -74 -201 -47 -283 41 -122
-84 -246 -247 -247 -24 0 -53 -5 -65 -12 -12 -7 -40 -13 -62 -13 -49 -1 -152
-50 -161 -77 -3 -10 -29 -32 -57 -48 -76 -43 -147 -113 -147 -144 0 -16 -11
-36 -29 -52 -19 -16 -31 -40 -36 -67 -15 -82 -16 -85 -35 -62 -9 10 -9 15 -1
15 8 0 8 6 -1 20 -7 10 -15 15 -18 10 -3 -5 -25 -11 -50 -13 -45 -5 -47 -7
-35 -38 4 -12 -1 -18 -19 -21 -18 -4 -26 0 -29 14 -4 15 -11 17 -34 12 -15 -4
-29 -11 -31 -16 -2 -4 -10 -8 -18 -8 -7 0 -21 -14 -29 -31 -13 -24 -19 -28
-30 -19 -10 8 -17 5 -32 -15 -17 -24 -21 -25 -46 -14 -21 10 -30 10 -39 1 -9
-9 -6 -12 15 -12 25 0 26 -2 17 -20 -7 -12 -21 -20 -38 -20 -24 -1 -25 -2 -8
-11 13 -8 25 -8 43 0 36 16 61 13 73 -8 16 -31 12 -52 -11 -58 -16 -5 -19 -11
-15 -32 3 -14 3 -20 0 -13 -3 6 -16 12 -29 12 -23 0 -27 -13 -11 -39 6 -10 5
-12 -2 -7 -8 5 -12 -2 -12 -21 0 -33 -16 -54 -35 -47 -7 3 -16 1 -20 -5 -3 -6
-19 -11 -35 -11 -41 0 -60 -10 -60 -31 0 -12 7 -19 20 -19 27 0 25 -18 -2 -22
-22 -3 -21 -4 7 -20 l30 -17 -33 -1 c-18 0 -46 9 -62 22 -23 17 -27 25 -19 40
8 15 6 18 -19 18 -15 0 -34 6 -41 13 -11 9 -13 9 -7 0 4 -7 2 -13 -3 -13 -6 0
-11 9 -11 19 0 16 10 20 65 26 46 5 71 14 88 29 13 12 29 20 35 18 7 -2 12 1
12 8 0 6 -4 8 -10 5 -5 -3 -10 -2 -10 2 0 5 -29 2 -65 -7 -36 -8 -65 -20 -65
-25 0 -6 -16 -12 -36 -13 -36 -3 -111 -28 -129 -44 -6 -5 -2 -8 10 -7 11 1 31
1 45 0 21 -1 22 -3 10 -12 -11 -8 -8 -9 15 -4 l30 7 -28 -26 c-23 -21 -32 -24
-52 -16 -17 6 -52 6 -102 -1 -42 -6 -84 -11 -94 -12 -24 -2 -25 -14 -1 -20 16
-4 16 -5 0 -6 -10 0 -19 -5 -19 -11 -1 -5 -3 -14 -4 -20 -1 -5 -3 -14 -4 -20
-2 -20 -32 -9 -49 18 -15 26 -20 28 -50 20 -26 -7 -32 -13 -30 -31 2 -18 -1
-22 -19 -20 -13 2 -23 -2 -23 -7 0 -6 -7 -10 -15 -10 -9 0 -12 6 -9 18 5 14 3
14 -11 -3 -11 -12 -19 -16 -22 -9 -5 14 -44 6 -58 -12 -5 -7 -21 -14 -35 -16
-21 -2 -26 -9 -28 -40 -4 -43 -23 -50 -50 -19 -14 16 -26 18 -74 14 -46 -4
-58 -9 -58 -23 0 -9 -10 -25 -22 -36 -13 -10 -17 -12 -10 -4 21 25 15 39 -15
31 -38 -10 -45 -51 -9 -51 14 0 27 -4 30 -9 4 -5 -3 -7 -14 -4 -23 6 -26 -9
-6 -30 8 -7 16 -25 19 -38 4 -23 4 -23 6 -1 1 27 42 46 83 37 16 -4 28 -2 28
4 0 21 40 22 70 1 25 -18 34 -19 45 -10 22 18 18 3 -5 -20 -28 -28 -48 -25
-56 7 -7 26 -7 26 -15 5 -9 -24 -47 -30 -66 -11 -15 15 -27 -7 -28 -53 -1 -38
-18 -68 -31 -55 -4 4 -2 18 4 32 11 24 0 36 -13 15 -9 -14 -83 -49 -89 -42 -4
3 -6 23 -6 44 0 26 4 38 14 38 13 0 23 14 24 35 1 6 -8 13 -20 18 -16 5 -19 4
-14 -8 9 -24 -18 -17 -29 7 -14 30 -31 33 -38 8 -3 -12 -15 -24 -26 -27 -31
-8 -13 -25 19 -18 22 5 31 2 39 -14 17 -30 14 -34 -20 -27 -26 5 -36 1 -56
-20 -18 -19 -21 -29 -13 -34 9 -6 9 -9 -1 -13 -8 -3 -2 -6 13 -6 14 -1 28 5
31 12 3 9 8 8 22 -3 14 -11 19 -12 22 -2 11 31 52 -5 53 -45 0 -13 5 -23 10
-23 6 0 10 -7 10 -16 0 -12 -6 -15 -20 -11 -13 3 -28 -2 -41 -16 l-20 -22 -25
30 c-13 17 -29 35 -35 40 -5 6 -18 18 -27 28 -18 19 -32 22 -32 7 0 -15 -33
-50 -48 -50 -7 0 -15 7 -18 15 -5 11 -11 9 -29 -10 -26 -29 -38 -31 -55 -10
-7 8 -21 15 -32 15 -17 0 -20 -5 -15 -28 7 -32 -4 -41 -83 -71 -50 -19 -61
-17 -37 8 10 11 9 13 -6 7 -10 -3 -32 -6 -49 -6 -26 0 -29 -2 -18 -15 11 -13
8 -15 -19 -15 -37 0 -43 26 -8 40 21 8 21 9 -5 9 -44 1 -36 31 8 31 24 0 34 4
32 13 -7 19 -48 21 -62 2 -14 -19 -73 -26 -100 -13 -13 7 -16 7 -12 -1 4 -6 3
-11 -3 -11 -5 0 -11 5 -13 12 -6 17 -28 0 -28 -23 0 -24 -20 -26 -21 -1 -1 9
-2 22 -4 27 -1 6 -3 15 -3 20 -1 6 -13 11 -27 11 -13 1 -24 -1 -23 -5 3 -21
-17 -71 -28 -71 -8 0 -14 -7 -14 -15 0 -11 -7 -14 -25 -9 -34 9 -61 -2 -47
-19 17 -21 4 -52 -23 -55 -13 -1 -45 -16 -70 -34 -26 -18 -52 -36 -59 -39 -6
-3 -20 -11 -32 -16 -29 -15 -102 5 -132 35 -28 29 -66 26 -70 -5 -2 -13 -8
-23 -13 -23 -5 0 -9 -6 -9 -14 0 -21 -30 -28 -54 -13 -12 8 -47 28 -79 46
l-58 32 -22 -27 c-12 -15 -26 -33 -32 -40 -26 -32 -136 -114 -153 -114 -24 0
-54 34 -81 94 -25 53 -25 54 -91 107 -36 29 -48 34 -62 26 -16 -11 -27 -2 -86
72 -11 14 -16 12 -42 -19 -28 -32 -32 -34 -62 -22 -55 20 -65 -7 -20 -54 35
-36 88 -74 102 -74 11 0 14 -49 4 -74 -11 -28 -28 -16 -54 36 -18 38 -32 54
-52 59 -15 4 -35 14 -44 23 -8 9 -24 16 -35 16 -20 0 -59 -33 -59 -51 0 -7
-18 -9 -47 -7 -41 3 -48 0 -51 -17 -9 -59 -13 -65 -68 -91 -43 -20 -65 -25
-97 -21 -52 7 -65 22 -131 157 -53 106 -61 128 -92 255 -9 39 -29 104 -44 145
-16 41 -30 94 -33 118 -3 24 -8 46 -11 49 -2 3 -33 11 -68 18 -35 8 -72 17
-83 21 -17 7 -18 5 -8 -7 13 -16 55 -131 109 -299 18 -58 45 -138 59 -178 14
-40 25 -87 23 -105 -2 -22 4 -38 23 -57 26 -26 58 -125 44 -138 -21 -21 -567
-6 -686 19 -25 6 -117 14 -205 19 -198 11 -238 18 -224 35 6 8 30 17 53 21
l42 8 -40 7 c-49 10 -375 11 -438 3 -26 -4 -44 -11 -41 -15 3 -5 0 -9 -5 -9
-6 0 -11 5 -11 10 0 6 -28 10 -67 9 -60 -1 -65 -2 -40 -12 15 -6 27 -14 27
-18 0 -15 -111 -21 -247 -15 -179 9 -193 10 -193 17 0 11 -60 20 -199 29 -73
5 -136 11 -138 14 -2 2 -6 12 -7 23 -2 10 -13 19 -24 21 -13 2 -22 11 -22 20
0 13 -4 12 -19 -7 -15 -19 -24 -23 -49 -18 -18 4 -32 2 -34 -4 -2 -6 -49 -13
-111 -16 l-107 -6 0 -578 0 -578 248 6 c245 5 347 -2 378 -28 11 -9 7 -16 -21
-35 -49 -33 -153 -78 -200 -86 -11 -2 24 -10 78 -17 61 -9 96 -18 94 -25 -5
-15 -51 -23 -180 -31 -88 -6 -120 -12 -160 -32 -34 -18 -58 -23 -79 -19 -20 4
-37 0 -56 -14 -15 -11 -44 -20 -65 -22 l-37 -2 0 -188 0 -188 38 -1 c20 0 73
-3 117 -7 252 -18 1103 0 1355 29 124 15 131 17 117 39 -6 10 -20 22 -32 25
-12 4 -15 8 -7 12 6 2 12 19 12 36 0 35 19 48 90 63 49 10 239 7 340 -6 47 -6
178 -13 291 -17 212 -6 339 4 383 32 15 9 68 13 183 13 178 0 197 -7 146 -54
-21 -20 -37 -24 -87 -25 -107 -2 -149 -26 -79 -46 220 -61 297 -68 497 -43
112 14 133 38 76 88 -16 15 -30 34 -30 44 0 9 -5 20 -11 23 -6 4 -9 19 -7 35
1 15 -4 35 -12 45 -8 9 -19 27 -25 39 -9 18 -19 21 -75 20 -100 -1 -702 -34
-815 -44 -156 -14 -247 -12 -291 6 -22 9 -61 17 -89 18 -43 1 -50 4 -50 21 -1
12 11 26 29 35 37 19 31 35 -14 34 -187 -7 -472 -4 -540 5 -47 6 -111 13 -143
14 -68 5 -90 19 -56 37 22 12 22 13 4 26 -10 8 -37 14 -58 14 -49 0 -212 37
-252 58 -27 14 -28 16 -10 22 68 25 172 33 460 36 212 2 333 -1 383 -9 75 -13
142 -11 142 3 0 14 -28 19 -142 30 -62 6 -117 15 -122 19 -23 19 -316 46 -463
43 -46 -1 -83 0 -83 3 0 11 69 33 95 30 24 -3 36 3 62 32 18 19 33 32 33 28 0
-5 8 -1 18 8 18 16 100 46 188 67 40 10 70 11 141 2 125 -17 241 -15 315 4 45
12 110 17 228 18 146 1 175 -2 250 -23 85 -24 85 -24 168 -7 55 12 143 19 255
21 158 3 172 4 176 21 2 11 7 24 13 31 9 11 -25 43 -47 43 -6 0 -16 5 -22 11
-7 7 -184 11 -560 12 -449 2 -553 5 -566 16 -27 22 -21 28 41 47 61 18 259 29
767 40 143 3 268 10 278 15 9 6 17 16 17 25 0 22 47 -12 66 -48 17 -32 40 -63
66 -87 10 -8 22 -29 28 -46 6 -16 23 -38 40 -47 16 -9 35 -32 43 -50 8 -18 34
-55 58 -82 24 -27 49 -62 54 -78 6 -16 29 -50 53 -76 104 -115 172 -198 172
-210 0 -7 26 -41 58 -75 72 -80 102 -116 102 -123 0 -4 12 -21 28 -38 63 -73
98 -120 119 -158 12 -22 30 -46 40 -53 11 -8 41 -58 68 -112 27 -54 57 -103
66 -110 9 -7 31 -36 49 -66 18 -30 47 -62 64 -72 55 -31 127 -118 172 -205 51
-101 94 -226 94 -271 0 -38 -34 -93 -67 -108 -12 -6 -25 -23 -28 -38 -3 -15
-18 -52 -32 -81 -14 -31 -27 -79 -30 -115 -6 -60 -30 -124 -59 -158 -23 -26
-10 -33 121 -60 29 -6 110 -8 195 -5 244 9 272 16 283 76 12 56 83 43 75 -14
-4 -24 -64 -60 -138 -82 -30 -9 -66 -22 -80 -30 -14 -7 -79 -17 -145 -22 -102
-8 -128 -6 -175 8 -30 10 -74 23 -97 29 -24 7 -43 15 -43 20 0 4 -18 14 -40
21 -22 7 -40 17 -40 21 0 4 -25 19 -55 34 -30 14 -55 30 -55 35 0 5 -14 17
-31 25 -16 9 -39 24 -49 33 -10 9 -37 31 -59 47 -22 17 -40 37 -41 46 -1 38
-104 169 -133 169 -8 0 -21 -16 -31 -36 -9 -21 -33 -56 -52 -79 -39 -48 -44
-75 -14 -75 18 0 19 -3 9 -21 -8 -17 -17 -20 -42 -15 -23 4 -39 0 -57 -14
l-25 -20 32 0 c39 0 65 -9 57 -21 -3 -5 -14 -9 -24 -9 -11 0 -32 -16 -47 -35
-29 -37 -68 -46 -91 -23 -9 9 -12 8 -12 -4 0 -9 12 -25 27 -36 27 -19 24 -49
-3 -38 -15 6 -100 -29 -110 -45 -6 -10 30 -10 66 0 14 4 43 3 65 -3 l40 -10
-35 -7 c-19 -4 -48 -12 -65 -17 -64 -23 -114 -34 -195 -46 -62 -9 -85 -16 -85
-27 0 -21 37 -23 99 -5 62 18 120 22 96 6 -8 -5 -26 -10 -40 -10 -14 0 -34 -7
-44 -15 -19 -15 -19 -15 3 -45 12 -17 21 -38 19 -46 -2 -13 -16 -9 -72 21 -41
21 -75 34 -85 30 -14 -6 -13 -9 7 -22 l23 -16 -31 -18 c-36 -22 -60 -24 -60
-5 0 20 -56 80 -67 73 -6 -4 -13 -32 -16 -62 -5 -54 -19 -85 -38 -85 -5 0 -9
7 -9 16 0 12 -7 15 -26 11 -20 -3 -27 1 -34 18 -10 26 -29 35 -76 35 -32 0
-34 -2 -34 -34 0 -19 -5 -47 -11 -63 -8 -22 -12 -24 -19 -13 -6 8 -10 11 -10
6 0 -6 -6 -3 -12 6 -9 11 -23 15 -45 11 -26 -4 -33 -10 -33 -28 0 -37 -40 -42
-97 -12 -37 19 -47 21 -38 7 13 -21 -18 -37 -54 -29 -20 4 -37 6 -40 3 -2 -2
1 -4 9 -4 10 0 10 -3 0 -15 -7 -8 -20 -15 -29 -15 -9 0 -38 -9 -66 -19 -42
-16 -47 -21 -30 -27 11 -4 64 -8 117 -8 58 -1 98 -5 98 -11 0 -11 -78 -36
-195 -61 -44 -10 -88 -24 -97 -32 -19 -16 -40 -8 -32 12 20 53 -306 17 -395
-44 -14 -9 -43 -28 -63 -41 -21 -13 -38 -27 -38 -31 0 -5 18 -8 40 -8 22 0 40
4 40 9 0 16 41 20 47 5 4 -11 37 -14 174 -14 93 0 169 4 169 9 0 12 64 41 106
48 34 6 68 38 58 55 -7 12 54 10 77 -3 11 -5 17 -14 14 -18 -2 -5 6 -16 20
-25 28 -18 24 -46 -6 -46 -10 0 -19 -4 -19 -10 0 -6 112 -10 315 -10 223 0
315 3 315 11 0 6 -11 25 -25 43 -38 47 -39 48 -63 89 -33 57 -30 71 16 62 68
-12 512 -17 556 -6 51 12 376 39 554 44 132 5 151 0 121 -30 -7 -7 26 -11 115
-11 121 0 125 0 140 23 9 14 16 35 16 48 0 18 8 28 29 37 16 6 31 20 34 31 5
19 31 26 41 11 3 -5 -2 -22 -10 -38 -30 -55 -27 -66 13 -58 34 6 35 6 23 -17
-21 -37 -49 -63 -83 -75 -22 -8 -31 -17 -29 -29 4 -20 -43 -64 -69 -65 -9 0
-22 -7 -29 -15 -7 -8 -30 -20 -51 -27 -22 -6 -39 -15 -39 -20 0 -4 291 -8 646
-8 614 0 647 1 672 19 15 10 47 21 72 24 25 3 56 9 69 13 18 5 23 4 19 -7 -3
-8 -27 -18 -56 -23 -75 -13 -64 -26 23 -26 43 0 75 4 75 10 0 6 7 10 15 10 8
0 15 -4 15 -10 0 -6 28 -10 65 -10 53 0 65 3 65 16 0 13 -7 15 -28 11 -42 -9
-74 21 -79 74 -2 24 -13 62 -23 84 -10 22 -22 52 -25 67 l-7 28 88 -44 c49
-24 102 -46 118 -50 15 -4 35 -14 43 -21 8 -8 19 -15 24 -15 14 0 11 28 -3 33
-7 3 1 6 17 6 19 0 62 -18 115 -49 47 -28 93 -50 103 -50 21 0 147 -70 147
-82 0 -20 28 -4 59 32 21 25 38 37 44 31 10 -10 -8 -51 -23 -51 -6 0 -10 -4
-10 -10 0 -5 11 -10 25 -10 15 0 25 6 25 15 0 8 6 12 13 9 9 -3 17 7 23 28 8
27 15 34 41 36 29 3 170 -15 428 -53 55 -8 126 -15 157 -15 31 0 60 -4 63 -10
4 -7 421 -10 1219 -10 l1212 0 10 43 c8 36 13 42 37 45 29 4 36 19 12 28 -8 4
-15 10 -15 16 0 5 5 6 10 3 6 -3 10 3 10 14 0 10 5 21 11 23 6 2 17 19 24 38
7 19 16 43 20 53 5 12 3 17 -8 17 -16 0 -77 -70 -77 -88 0 -6 -12 -23 -26 -39
-17 -19 -23 -34 -20 -49 7 -26 -9 -42 -18 -19 -7 18 2 49 36 120 21 46 108
133 156 156 26 13 70 27 97 31 28 4 86 13 130 20 136 22 221 17 296 -19 93
-44 152 -103 194 -194 34 -75 44 -119 26 -119 -5 0 -14 6 -20 13 -11 13 -45
16 -56 5 -4 -3 -30 0 -58 8 -68 18 -97 6 -97 -42 0 -66 -7 -64 201 -64 l189 0
0 455 0 455 -26 6 c-16 4 -50 -1 -83 -11 -31 -10 -86 -19 -123 -20 -66 -3 -68
-2 -80 26 -7 16 -20 31 -28 34 -37 11 -340 16 -340 6 0 -6 -12 -11 -27 -10
l-28 1 25 7 c25 7 24 8 -7 15 -18 4 -46 5 -62 1 -16 -3 -64 -2 -108 4 -43 5
-116 13 -163 16 -93 7 -109 14 -83 36 30 26 112 38 258 38 320 0 706 14 702
25 -5 16 -94 27 -257 30 -192 4 -374 14 -485 26 -142 16 -475 29 -525 20 -68
-11 -198 -12 -205 0 -3 5 -1 10 6 10 7 0 2 11 -11 25 -13 14 -29 25 -35 25
-13 0 -81 81 -78 92 4 11 -60 36 -109 43 -24 3 -144 14 -268 25 -373 33 -444
40 -454 50 -5 5 9 18 31 32 21 12 48 29 58 36 45 28 90 43 148 48 34 3 64 7
67 9 3 1 93 -1 200 -6 263 -13 283 -5 354 141 15 30 66 114 114 185 47 72 113
171 145 220 33 50 70 101 82 115 13 14 37 47 54 74 25 41 31 60 31 107 0 34 7
71 17 91 9 18 19 40 23 48 5 11 32 17 101 22 52 3 117 11 144 16 28 6 97 11
155 11 58 1 122 7 143 13 26 8 44 8 60 1 12 -6 50 -18 85 -27 75 -20 98 -11
108 39 9 52 1 67 -32 54 -15 -5 -40 -7 -55 -4 -16 4 -39 0 -57 -9 -16 -8 -38
-15 -48 -14 -10 0 -26 -2 -35 -6 -13 -6 -18 1 -23 34 -3 23 -4 45 -1 50 3 5
-4 14 -16 20 -16 9 -40 8 -105 -5 -46 -9 -89 -13 -96 -9 -18 11 -60 5 -78 -11
-8 -7 -44 -18 -80 -25 -76 -13 -124 -27 -162 -46 -14 -8 -28 -14 -31 -14 -8 0
-64 123 -87 190 -12 36 -24 89 -27 118 l-6 52 31 0 c37 0 49 15 28 36 -17 17
-21 28 -7 20 15 -10 6 67 -12 102 -13 24 -24 32 -45 32 -38 0 -47 9 -65 64
-19 55 -22 140 -7 201 12 49 6 84 -53 320 -24 92 -50 189 -92 340 -10 33 -21
78 -25 101 -5 22 -13 51 -18 65 -6 13 -18 51 -27 84 -9 33 -25 91 -37 130 -22
74 -28 137 -15 171 6 18 3 24 -20 32 -24 8 -32 21 -56 96 -15 47 -27 92 -27
99 0 7 -16 50 -35 96 -19 46 -42 116 -51 155 -9 39 -21 80 -27 90 -5 10 -13
98 -18 195 -9 185 -13 234 -29 396 -5 55 -12 156 -15 225 -4 89 -11 135 -23
160 -14 30 -16 58 -13 190 9 308 4 356 -59 534 -11 33 -23 92 -27 130 -4 49
-17 94 -41 146 -18 41 -36 98 -39 127 -6 51 -5 53 18 53 45 1 63 24 56 74 -4
28 -1 57 7 78 8 18 12 49 9 68 -3 27 -2 31 6 20 10 -13 12 -13 21 0 7 11 4 17
-9 22 -15 5 -18 16 -15 67 4 58 2 61 -21 67 -14 3 -40 4 -58 1 -30 -4 -77 9
-77 22 0 4 -12 14 -28 23 -26 15 -29 15 -51 -1z m82 -337 c10 -40 10 -54 0
-74 -7 -14 -13 -42 -13 -63 0 -26 -4 -37 -12 -35 -11 4 -13 30 -9 123 1 14 5
24 10 23 5 -2 9 2 9 7 0 6 -3 9 -7 8 -4 -1 -5 14 -3 33 5 43 9 40 25 -22z
m-16 -216 c-3 -8 -6 -5 -6 6 -1 11 2 17 5 13 3 -3 4 -12 1 -19z m-33 -85 c-9
-36 -12 -39 -20 -19 -7 20 1 46 16 46 6 0 8 -11 4 -27z m18 -436 c2 -18 1 -44
-2 -58 -5 -21 -7 -22 -13 -6 -10 27 -9 97 2 97 5 0 11 -15 13 -33z m8 -194 c0
-20 -3 -24 -11 -16 -7 7 -9 19 -6 27 10 24 17 19 17 -11z m-3 -103 c-1 -11 -5
-20 -9 -20 -10 0 -10 4 -2 24 8 22 13 20 11 -4z m207 -55 c7 -37 -13 -94 -22
-65 -3 8 -8 17 -13 20 -8 6 12 80 22 80 4 0 10 -16 13 -35z m-204 -46 c0 -19
-5 -29 -15 -29 -16 0 -18 12 -9 47 8 31 24 19 24 -18z m-357 -754 c-3 -9 -8
-14 -10 -11 -3 3 -2 9 2 15 9 16 15 13 8 -4z m-40 -101 c-4 -10 -9 -12 -15 -6
-12 12 -1 35 12 27 5 -3 6 -13 3 -21z m-33 -18 c0 -2 -7 -7 -16 -10 -8 -3 -12
-2 -9 4 6 10 25 14 25 6z m-402 -266 c-13 -20 -38 -28 -38 -12 0 12 23 32 37
32 11 0 11 -4 1 -20z m-124 -76 c13 -5 14 -9 5 -20 -15 -18 -49 -18 -49 -1 0
25 15 32 44 21z m-244 -18 c0 -9 17 -16 50 -21 28 -4 50 -10 50 -13 -1 -16
-17 -28 -55 -41 -22 -7 -51 -20 -65 -29 -15 -10 -52 -18 -93 -19 -44 -2 -74
-9 -84 -18 -8 -8 -20 -15 -27 -15 -7 0 -19 -11 -26 -25 -11 -21 -20 -25 -62
-25 -32 0 -48 4 -48 13 0 6 -3 28 -6 48 l-6 36 58 -2 c33 0 66 2 74 6 8 4 28
13 44 20 16 8 37 13 46 11 10 -2 41 7 69 20 45 19 51 25 46 45 -4 18 -1 23 15
23 11 0 20 -6 20 -14z m-140 -172 c0 -10 -28 -34 -39 -34 -18 0 -12 28 7 33
27 7 32 7 32 1z m-70 -44 c0 -5 -7 -7 -15 -4 -8 4 -15 8 -15 10 0 2 7 4 15 4
8 0 15 -4 15 -10z m-210 -4 c0 -3 -4 -8 -10 -11 -5 -3 -10 -1 -10 4 0 6 5 11
10 11 6 0 10 -2 10 -4z m-60 -61 c0 -9 -9 -15 -22 -15 -21 0 -21 0 -2 15 24
18 24 18 24 0z m-214 -55 c8 0 14 -6 14 -14 0 -7 10 -16 22 -20 17 -4 20 -8
11 -17 -9 -9 -23 -7 -57 7 -43 18 -55 32 -39 48 4 3 13 4 21 1 7 -3 20 -5 28
-5z m-139 -29 l26 -7 -36 -21 -36 -22 1 34 c1 19 5 32 10 29 5 -4 21 -9 35
-13z m102 -30 c10 -7 8 -10 -10 -16 -13 -4 -36 -16 -51 -26 -32 -23 -58 -24
-58 -4 0 9 12 18 30 21 16 4 35 13 41 20 13 16 28 17 48 5z m168 -7 c17 -45
-30 -432 -77 -634 -39 -169 -52 -234 -74 -360 -15 -80 -31 -165 -36 -190 -6
-25 -21 -106 -35 -180 -13 -74 -39 -202 -56 -285 -18 -82 -35 -175 -39 -205
-8 -72 -54 -281 -92 -425 -22 -84 -45 -122 -121 -200 -43 -44 -88 -97 -99
-117 -31 -55 -48 -50 -48 15 0 29 5 58 12 65 7 7 13 47 15 95 3 94 9 175 17
229 3 26 1 38 -10 42 -13 5 -13 10 2 38 13 25 14 36 5 50 -9 15 -8 20 4 24 17
7 21 64 5 64 -19 0 -10 49 11 61 17 9 20 17 16 45 -3 18 -1 36 4 39 15 10 10
35 -6 29 -20 -8 -20 25 0 88 14 46 13 48 -8 59 -12 7 -26 18 -30 25 -4 8 -23
14 -42 14 -54 0 -78 64 -30 76 46 11 61 71 24 95 -14 10 -18 20 -13 32 6 17 7
17 20 0 11 -15 16 -16 33 -6 15 10 20 9 25 -2 11 -29 23 -15 30 33 5 37 3 50
-9 59 -11 7 -12 13 -6 18 18 10 13 25 -8 25 -36 0 -32 19 10 61 33 33 43 51
45 83 4 38 17 132 44 310 9 63 22 114 81 326 10 36 41 132 69 214 27 82 50
156 50 164 0 11 -8 13 -32 8 -107 -22 -124 -16 -91 32 l18 27 3 -32 c4 -41 15
-41 50 -2 24 27 36 32 83 34 49 2 191 46 214 66 16 15 65 10 72 -7z m-350 -50
c-3 -3 -12 -4 -19 -1 -8 3 -5 6 6 6 11 1 17 -2 13 -5z m-32 -24 c3 -5 1 -10
-4 -10 -6 0 -11 5 -11 10 0 6 2 10 4 10 3 0 8 -4 11 -10z m-345 -10 c0 -5 -11
-10 -25 -10 -14 0 -25 5 -25 10 0 6 11 10 25 10 14 0 25 -4 25 -10z m170 0 c0
-5 -15 -10 -32 -10 -18 0 -44 -3 -58 -6 -24 -5 -24 -5 -6 10 22 18 96 22 96 6z
m89 -40 c4 0 8 -7 8 -15 0 -9 -5 -14 -11 -12 -6 2 -11 8 -11 13 0 5 -3 14 -7
20 -4 6 -4 14 0 19 4 4 8 0 10 -9 2 -9 7 -16 11 -16z m-3599 -5 c0 -9 -6 -12
-16 -8 -13 5 -13 7 -2 14 17 11 18 11 18 -6z m3409 1 c7 -8 21 -12 34 -8 19 5
20 3 9 -10 -10 -13 -9 -16 5 -20 27 -7 43 1 43 23 0 13 7 19 23 19 18 0 23 -5
22 -27 0 -25 -4 -28 -37 -31 -21 -2 -38 -7 -38 -13 0 -5 -9 -9 -19 -9 -11 0
-32 -6 -48 -14 -15 -8 -47 -18 -69 -23 -35 -8 -43 -7 -52 7 -16 25 4 40 54 40
52 0 74 8 74 26 0 9 -11 14 -30 14 -28 0 -40 17 -23 33 11 12 40 8 52 -7z
m-139 -36 c0 -5 -4 -10 -10 -10 -5 0 -10 5 -10 10 0 6 5 10 10 10 6 0 10 -4
10 -10z m-40 -50 c0 -5 -2 -10 -4 -10 -3 0 -8 5 -11 10 -3 6 -1 10 4 10 6 0
11 -4 11 -10z m-65 -80 c3 -5 -1 -10 -9 -10 -9 0 -19 0 -23 -1 -4 0 -9 4 -11
10 -5 14 35 14 43 1z m2505 -127 c0 -22 -9 -49 -20 -63 l-19 -25 -35 19 c-49
26 -56 48 -13 45 57 -4 65 0 72 31 9 41 15 38 15 -7z m-2604 -79 c-4 -9 -9
-15 -11 -12 -3 3 -3 13 1 22 4 9 9 15 11 12 3 -3 3 -13 -1 -22z m-739 -30 c-3
-3 -12 -4 -19 -1 -8 3 -5 6 6 6 11 1 17 -2 13 -5z m123 -44 c0 -5 -10 -10 -22
-10 -19 0 -20 2 -8 10 19 13 30 13 30 0z m-126 -12 c-5 -7 -2 -9 7 -6 8 3 20
-1 27 -8 10 -11 8 -15 -7 -24 -27 -14 -48 -13 -48 4 0 8 8 12 21 9 19 -4 19
-3 3 7 -15 10 -16 30 -1 30 3 0 2 -5 -2 -12z m-114 -38 c0 -6 -11 -15 -24 -21
-30 -14 -42 -49 -16 -49 19 0 47 -27 37 -36 -3 -3 -22 -1 -42 6 -31 10 -39 9
-54 -4 -20 -18 -41 -21 -41 -6 0 5 6 13 13 17 8 4 22 20 32 36 9 15 24 27 31
27 8 0 14 6 14 14 0 14 14 24 38 25 6 1 12 -4 12 -9z m16 -41 c-13 -10 -28
-19 -33 -19 -4 0 0 5 10 11 9 5 17 16 17 24 0 9 6 12 15 9 12 -5 10 -10 -9
-25z m19 -19 c3 -5 1 -10 -4 -10 -6 0 -11 5 -11 10 0 6 2 10 4 10 3 0 8 -4 11
-10z m-561 -49 c3 -5 -1 -12 -10 -15 -20 -8 -29 -1 -19 13 8 13 22 14 29 2z
m-11 -46 c-3 -9 -8 -14 -10 -11 -3 3 -2 9 2 15 9 16 15 13 8 -4z m335 -1 c7
-2 11 -8 7 -13 -3 -6 3 -14 12 -20 23 -13 10 -25 -14 -13 -10 5 -37 18 -60 28
-24 11 -43 22 -43 26 0 7 71 2 98 -8z m-1138 -38 c0 -8 -4 -18 -10 -21 -5 -3
-10 3 -10 14 0 12 5 21 10 21 6 0 10 -6 10 -14z m20 -66 c0 -5 -2 -10 -4 -10
-3 0 -8 5 -11 10 -3 6 -1 10 4 10 6 0 11 -4 11 -10z m1151 -3 c-1 -12 -15 -9
-19 4 -3 6 1 10 8 8 6 -3 11 -8 11 -12z m1321 -282 c9 -12 0 -25 -18 -25 -8 0
-14 9 -14 20 0 20 19 23 32 5z m-46 -32 c-10 -10 -19 5 -10 18 6 11 8 11 12 0
2 -7 1 -15 -2 -18z m62 -83 c13 -17 22 -43 21 -62 -1 -26 -3 -29 -8 -13 -26
71 -34 85 -53 85 -10 0 -16 5 -13 10 11 18 31 11 53 -20z m-5144 4 c9 -3 16
-10 16 -15 0 -14 -34 -11 -56 6 -19 14 -19 14 3 15 12 0 28 -3 37 -6z m2116
-43 c0 -17 -18 -21 -24 -6 -3 9 0 15 9 15 8 0 15 -4 15 -9z m3005 -140 c-3 -6
-14 -11 -23 -11 -13 0 -13 2 4 14 21 15 30 14 19 -3z m-4871 -160 c50 -20 17
-30 -124 -37 -120 -6 -137 -5 -149 10 -9 10 -10 20 -5 26 21 21 228 22 278 1z
m4863 -162 c24 -9 48 -45 35 -53 -4 -2 -14 -1 -21 3 -7 5 -21 7 -30 4 -25 -6
-66 30 -58 51 7 18 16 17 74 -5z m-4868 -55 c68 -14 21 -31 -112 -41 -69 -5
-137 11 -120 28 4 4 46 10 93 12 47 1 90 4 96 5 6 1 26 -1 43 -4z m3281 -122
c25 -26 66 -61 91 -78 25 -17 88 -83 140 -145 123 -148 164 -208 151 -221 -16
-16 -343 -11 -360 6 -25 24 -72 188 -83 286 -6 52 -17 118 -25 146 -8 28 -14
59 -14 69 0 16 1 16 28 0 15 -9 47 -38 72 -63z m447 -504 c17 -18 63 -73 102
-123 91 -115 82 -105 181 -210 71 -76 196 -175 223 -175 15 0 216 -100 258
-129 24 -16 63 -39 86 -51 24 -12 40 -27 37 -32 -7 -11 -107 -5 -199 12 -183
32 -384 41 -520 21 -38 -5 -139 -11 -224 -13 -141 -2 -154 -1 -167 17 -8 10
-14 28 -14 39 0 12 -6 33 -14 48 -20 37 -46 131 -46 162 0 15 -13 55 -29 89
-27 59 -34 80 -62 189 -11 46 -6 99 9 97 18 -3 30 3 60 30 21 20 47 32 74 35
24 3 77 10 118 14 41 5 80 10 86 11 5 0 24 -14 41 -31z m2034 -897 c129 -16
288 -35 354 -41 66 -6 142 -16 168 -21 26 -5 62 -9 79 -9 50 0 20 -18 -37 -23
-27 -2 13 -3 90 0 85 2 146 0 155 -7 11 -7 5 -10 -25 -10 -22 0 -51 -7 -65
-15 -17 -10 -58 -14 -132 -15 -61 0 -110 -4 -113 -10 -4 -6 -24 -19 -45 -30
-34 -18 -61 -20 -212 -21 -102 -1 -163 -4 -148 -9 24 -8 23 -8 -8 -9 -18 -1
-31 3 -28 8 10 16 -19 28 -84 35 -133 13 -266 32 -278 40 -19 11 -14 51 8 71
11 10 17 22 14 26 -5 9 1 10 61 14 17 1 39 3 49 4 31 2 9 14 -36 20 -45 7 -66
31 -25 31 13 0 129 -13 258 -29z m-2030 -12 c209 -29 337 -47 399 -54 261 -29
371 -47 377 -61 2 -7 -7 -43 -20 -81 l-24 -68 -59 -13 c-90 -20 -140 -47 -174
-93 -25 -35 -30 -51 -30 -99 0 -78 -13 -84 -156 -68 -100 12 -107 14 -116 38
-47 122 -77 146 -175 136 l-63 -7 -19 43 c-63 136 -125 313 -117 333 7 19 5
19 177 -6z m1864 -219 c50 -4 133 -13 185 -19 384 -44 1632 -133 2305 -165
176 -9 394 -20 485 -26 91 -5 224 -10 295 -9 194 1 217 0 230 -11 6 -5 42 -10
80 -12 l70 -3 3 -33 c4 -39 1 -37 180 -88 122 -35 173 -57 160 -70 -4 -3 -145
0 -315 7 -272 11 -397 9 -1063 -9 -415 -12 -811 -24 -880 -27 -366 -16 -793
-28 -925 -26 -190 4 -603 -17 -631 -31 -16 -7 -65 -4 -185 12 -90 12 -174 26
-186 31 -12 4 -35 26 -51 48 -27 38 -29 44 -20 91 5 28 7 76 5 108 -5 59 6
153 24 209 11 36 36 44 104 36 22 -3 81 -8 130 -13z m-2890 -129 c-6 -5 -44
-12 -85 -15 -50 -3 -63 -3 -37 3 20 4 40 11 44 14 3 4 24 7 47 7 25 0 36 -4
31 -9z m-91 -69 c10 -17 -11 -29 -49 -27 -60 4 -60 4 -49 14 16 16 90 26 98
13z m2133 -54 c7 -6 12 -24 10 -41 -1 -17 3 -32 11 -34 7 -3 12 4 12 19 0 17
3 19 9 9 16 -24 1 -51 -29 -51 -22 0 -30 -7 -45 -42 -10 -24 -20 -46 -22 -49
-5 -8 75 -39 90 -35 7 1 9 1 5 -1 -8 -5 -11 -33 -4 -33 2 0 11 -3 20 -6 11 -4
16 -1 16 10 0 9 8 16 19 16 10 0 24 7 31 15 7 8 16 15 21 15 5 0 9 -7 9 -15 0
-9 10 -15 26 -15 14 0 23 -4 19 -10 -3 -5 -18 -10 -32 -10 -18 0 -24 -4 -19
-15 3 -9 0 -15 -8 -15 -7 0 -19 -7 -26 -15 -9 -10 -9 -15 -1 -15 6 0 11 -4 11
-10 0 -17 -31 -11 -152 31 -65 22 -128 39 -140 37 -20 -3 -19 -6 15 -22 21
-10 35 -22 30 -26 -4 -4 -46 -12 -93 -19 -108 -15 -117 -18 -117 -37 0 -8 6
-13 12 -10 7 2 37 7 68 11 32 4 57 11 57 16 0 5 33 9 73 9 74 0 143 -18 156
-39 5 -8 18 -10 35 -5 21 5 33 1 54 -19 15 -13 41 -27 58 -29 27 -4 30 -2 26
16 -6 27 -32 56 -49 56 -16 0 -17 17 0 23 18 6 65 -9 82 -27 10 -10 13 -24 9
-40 -4 -19 -2 -28 11 -32 9 -4 20 -2 24 4 9 14 61 3 61 -14 0 -8 -10 -14 -23
-14 -15 0 -34 -13 -53 -37 -52 -65 -121 -133 -135 -133 -13 0 -49 18 -164 79
l-40 22 -3 -26 c-4 -30 -32 -34 -49 -5 -7 10 -52 45 -100 77 -94 61 -209 103
-287 103 -23 0 -51 7 -63 15 -12 8 -29 12 -39 8 -15 -5 -16 -1 -10 43 4 27 16
77 27 112 19 57 23 62 49 62 15 0 30 6 33 14 3 8 30 30 59 49 29 19 64 46 77
60 13 15 28 24 33 21 8 -5 142 -15 208 -15 14 0 39 7 55 15 30 15 58 13 82 -6z
m-2100 -44 c-3 -3 -12 -4 -19 -1 -8 3 -5 6 6 6 11 1 17 -2 13 -5z m-933 -390
c3 -9 6 -25 6 -37 0 -20 0 -20 -15 -1 -16 21 -20 54 -6 54 5 0 12 -7 15 -16z
m1966 -25 c0 -5 -4 -9 -10 -9 -5 0 -10 7 -10 16 0 8 5 12 10 9 6 -3 10 -10 10
-16z m-36 -53 c-11 -28 -73 -59 -94 -46 -9 5 -1 15 26 34 43 29 77 35 68 12z
m-2327 -92 c-3 -3 -12 -4 -19 -1 -8 3 -5 6 6 6 11 1 17 -2 13 -5z m403 -64 c0
-20 26 -74 52 -112 16 -23 2 -35 -22 -20 -11 7 -27 12 -36 12 -9 0 -21 14 -27
30 -8 22 -17 30 -32 28 -30 -4 -32 30 -2 41 13 5 27 17 30 25 9 23 37 20 37
-4z m-297 -7 c-7 -2 -21 -2 -30 0 -10 3 -4 5 12 5 17 0 24 -2 18 -5z m117 -32
c14 -27 13 -30 -10 -24 -11 3 -20 14 -20 24 0 25 16 24 30 0z m-79 -14 c-13
-13 -26 -3 -16 12 3 6 11 8 17 5 6 -4 6 -10 -1 -17z m-452 -43 c2 -2 -10 -4
-27 -4 -18 0 -32 5 -32 10 0 9 47 4 59 -6z m4451 -4 c0 -5 -2 -10 -4 -10 -3 0
-8 5 -11 10 -3 6 -1 10 4 10 6 0 11 -4 11 -10z"/>
<path d="M6380 4620 c0 -5 7 -10 15 -10 8 0 15 5 15 10 0 6 -7 10 -15 10 -8 0
-15 -4 -15 -10z"/>
<path d="M6071 3194 c-25 -31 -27 -57 -6 -74 21 -18 67 31 63 68 -4 36 -31 39
-57 6z"/>
<path d="M6720 1311 c0 -7 27 -11 77 -11 42 0 74 2 72 4 -2 3 -37 8 -77 11
-50 5 -72 4 -72 -4z"/>
<path d="M6968 1283 c7 -3 16 -2 19 1 4 3 -2 6 -13 5 -11 0 -14 -3 -6 -6z"/>
<path d="M7045 1279 c55 -11 75 -11 75 1 0 6 -25 9 -57 9 -57 -1 -58 -1 -18
-10z"/>
<path d="M7228 1263 c17 -2 47 -2 65 0 17 2 3 4 -33 4 -36 0 -50 -2 -32 -4z"/>
<path d="M5545 590 c3 -5 12 -7 20 -3 21 7 19 13 -6 13 -11 0 -18 -4 -14 -10z"/>
<path d="M5476 570 c7 -7 19 -7 35 -1 23 9 22 10 -10 10 -24 1 -32 -2 -25 -9z"/>
<path d="M5340 550 c0 -5 14 -7 33 -3 45 8 47 13 4 13 -20 0 -37 -4 -37 -10z"/>
<path d="M5300 530 c0 -5 7 -7 15 -4 8 4 15 8 15 10 0 2 -7 4 -15 4 -8 0 -15
-4 -15 -10z"/>
<path d="M5933 389 c-28 -10 -29 -21 -5 -42 30 -27 52 -22 46 11 -7 36 -14 42
-41 31z"/>
<path d="M5750 380 c0 -5 9 -10 20 -10 11 0 20 5 20 10 0 6 -9 10 -20 10 -11
0 -20 -4 -20 -10z"/>
<path d="M10176 7637 c-13 -10 -17 -20 -12 -33 4 -10 12 -57 17 -104 12 -112
20 -118 136 -118 132 0 130 -2 169 156 18 72 19 73 48 70 28 -3 31 -6 32 -43
1 -50 20 -120 37 -132 16 -13 149 -53 176 -53 20 0 21 5 21 136 l0 135 -117
-5 c-151 -7 -179 -7 -348 0 -112 4 -144 2 -159 -9z"/>
<path d="M9735 7590 c-27 -4 -71 -6 -97 -3 -34 4 -55 1 -71 -10 -22 -14 -23
-21 -19 -74 6 -74 24 -97 72 -88 82 14 122 16 147 7 20 -6 42 -5 73 4 25 8 55
14 67 14 15 0 24 9 32 31 13 37 15 106 3 113 -16 10 -158 14 -207 6z"/>
<path d="M9228 7581 c-114 -4 -171 -10 -180 -19 -14 -14 -13 -71 3 -120 8 -25
15 -32 28 -27 50 21 83 24 183 16 70 -6 117 -15 133 -25 23 -15 26 -15 45 6
43 49 50 58 50 69 0 6 9 8 20 4 17 -5 20 -2 20 24 0 33 -14 42 -24 15 -3 -8
-10 -13 -15 -10 -5 3 -12 -6 -16 -21 -5 -21 -8 -24 -16 -12 -5 7 -6 26 -3 42
4 21 0 32 -18 47 -12 11 -27 19 -33 18 -5 -1 -85 -4 -177 -7z"/>
<path d="M1555 7541 c-16 -31 -42 -45 -68 -36 -19 8 -32 -12 -18 -29 13 -15 5
-26 -20 -26 -18 0 -49 40 -49 64 0 27 -39 39 -107 33 -34 -4 -72 -11 -83 -17
-13 -7 -62 -10 -123 -8 l-102 3 -26 -80 c-30 -90 -56 -115 -121 -115 -57 0
-89 -46 -74 -108 4 -15 10 -40 12 -57 3 -16 15 -50 26 -75 12 -25 21 -51 21
-57 0 -7 6 -13 13 -13 39 0 24 -143 -17 -153 -14 -4 -17 -15 -17 -53 0 -69 18
-136 39 -154 10 -8 22 -30 25 -47 6 -31 5 -33 -20 -33 -30 0 -32 -6 -9 -32 26
-29 21 -103 -11 -166 l-28 -54 31 -25 c25 -21 31 -33 31 -65 0 -31 -4 -41 -20
-45 -24 -6 -27 -43 -3 -43 9 0 40 -22 69 -50 72 -68 96 -67 164 2 40 41 48 54
36 60 -15 8 -21 41 -30 158 -3 36 -14 89 -26 118 -20 51 -20 55 -3 89 10 22
28 40 45 47 15 6 28 13 28 16 0 5 -33 24 -61 35 -10 4 -19 23 -22 47 -6 47 0
68 20 68 16 0 62 49 63 68 0 6 -5 12 -11 12 -5 0 -8 4 -5 8 3 5 -10 24 -29 42
-28 27 -35 42 -35 73 0 22 -15 78 -34 126 -42 107 -52 180 -31 226 21 43 69
85 98 85 13 0 28 5 34 11 13 13 53 2 53 -14 0 -20 60 -46 123 -53 41 -4 67
-14 88 -31 32 -27 29 -27 164 -5 49 8 91 26 129 56 14 12 18 28 18 76 0 60
-12 90 -38 90 -8 0 -15 5 -15 10 -1 6 -2 15 -3 20 -1 13 -26 30 -43 30 -7 0
-19 -13 -28 -29z"/>
<path d="M2367 7544 c-17 -9 -39 -13 -54 -9 -18 4 -29 0 -43 -17 -49 -59 -8
-88 149 -105 44 -5 62 -1 102 18 27 13 49 29 49 35 0 14 -71 71 -105 84 -36
14 -65 12 -98 -6z"/>
<path d="M1865 7529 c-33 -10 -70 -19 -82 -19 -19 0 -23 -5 -23 -34 0 -18 -7
-39 -16 -47 -8 -7 -13 -21 -11 -31 3 -10 1 -18 -4 -18 -16 0 -10 -28 8 -34 12
-5 26 4 48 28 40 47 64 54 162 48 77 -4 83 -3 107 21 82 82 -34 135 -189 86z"/>
<path d="M9396 7154 c-17 -9 -47 -17 -68 -18 -33 -1 -38 -4 -36 -20 3 -19 10
-20 108 -17 58 1 109 7 115 12 5 5 19 9 31 9 13 0 25 4 28 9 21 33 -127 54
-178 25z"/>
<path d="M9020 7140 l-23 -23 23 -19 c12 -10 38 -18 56 -18 41 0 104 24 104
40 0 13 -41 29 -96 37 -35 4 -45 2 -64 -17z"/>
<path d="M355 7118 c-11 -32 -9 -65 5 -80 22 -27 28 -22 36 28 5 34 3 48 -7
55 -19 12 -29 11 -34 -3z"/>
<path d="M10003 7123 c-13 -2 -23 -9 -23 -14 0 -13 43 -29 66 -24 76 15 76 15
64 30 -12 14 -57 18 -107 8z"/>
<path d="M10601 7121 c-19 -3 -36 -11 -38 -18 -6 -17 68 -26 158 -18 68 6 79
10 79 26 0 17 -8 19 -82 18 -46 -1 -98 -4 -117 -8z"/>
<path d="M10290 7110 c-12 -8 -11 -10 8 -10 12 0 22 5 22 10 0 13 -11 13 -30
0z"/>
<path d="M10336 7111 c-7 -10 23 -20 42 -14 6 3 10 9 6 14 -7 12 -41 12 -48 0z"/>
<path d="M2250 6563 c0 -14 18 -17 44 -7 26 10 18 21 -14 21 -18 0 -30 -6 -30
-14z"/>
<path d="M2185 6517 c-37 -20 -38 -21 -16 -25 15 -2 30 3 37 12 6 9 16 16 23
16 6 0 11 5 11 10 0 13 -8 12 -55 -13z"/>
<path d="M1997 6469 c7 -7 15 -10 18 -7 3 3 -2 9 -12 12 -14 6 -15 5 -6 -5z"/>
<path d="M1384 6451 c-34 -3 -68 -12 -76 -18 -11 -10 -17 -10 -26 -1 -9 9 -15
9 -24 0 -9 -9 -8 -12 5 -12 9 0 17 -4 17 -9 0 -5 23 -15 51 -22 28 -7 55 -21
60 -31 9 -16 25 -18 129 -18 113 0 120 1 120 20 0 21 -27 40 -47 33 -7 -3 -13
-1 -13 4 0 4 -11 21 -25 36 -28 29 -42 31 -171 18z"/>
<path d="M1905 6421 c-3 -5 -1 -12 5 -16 5 -3 10 1 10 9 0 18 -6 21 -15 7z"/>
<path d="M4810 6376 c0 -9 7 -16 16 -16 17 0 14 22 -4 28 -7 2 -12 -3 -12 -12z"/>
<path d="M10175 6361 c-10 -9 -5 -21 9 -21 8 0 16 -16 20 -40 3 -22 10 -40 14
-40 4 0 15 18 25 40 17 37 22 40 57 40 44 0 70 -20 70 -54 0 -13 7 -29 15 -36
10 -9 15 -9 15 -1 0 6 7 11 15 11 11 0 15 11 15 40 0 25 5 40 13 40 8 1 7 4
-3 9 -16 9 -257 20 -265 12z"/>
<path d="M10683 6349 c-32 -6 -63 -25 -63 -38 0 -3 41 -7 90 -8 84 -2 90 -1
90 17 0 17 -7 20 -39 20 -22 0 -41 4 -43 8 -1 5 -18 5 -35 1z"/>
<path d="M9318 6343 c13 -10 6 -43 -9 -43 -18 0 -25 -3 -51 -21 -32 -23 -47
-24 -63 -3 -11 15 -12 15 -12 -2 0 -33 23 -44 86 -43 44 1 61 5 61 15 0 8 6
14 13 14 20 0 47 33 47 58 0 17 -6 22 -24 22 -13 0 -33 3 -43 6 -13 4 -14 3
-5 -3z"/>
<path d="M2526 6290 c-17 -30 -17 -34 0 -113 10 -45 17 -102 16 -127 -2 -44 6
-80 35 -170 17 -52 20 -58 62 -160 17 -41 33 -88 37 -103 8 -37 109 -188 163
-246 23 -25 55 -66 72 -93 17 -26 34 -48 38 -48 3 0 29 -21 56 -48 57 -53 120
-102 132 -102 8 1 43 70 43 86 0 6 10 19 23 31 12 11 32 31 44 46 14 16 28 24
41 21 16 -5 18 -1 15 23 -5 33 8 47 80 87 50 27 77 33 77 16 0 -5 26 -11 58
-11 79 -2 113 -11 126 -34 15 -27 38 -44 59 -45 41 0 -3 -60 -45 -60 -9 0 -22
-9 -27 -19 -11 -19 -89 -37 -138 -32 -13 1 -23 -2 -23 -8 0 -21 -45 -10 -75
18 -16 16 -40 32 -51 35 -18 5 -22 1 -28 -25 -4 -21 -2 -36 7 -43 12 -10 21
-21 68 -93 27 -40 72 -95 112 -136 37 -39 48 -81 25 -90 -37 -15 119 -67 201
-67 86 0 170 -27 236 -75 33 -24 110 -57 117 -49 3 2 25 -18 50 -45 27 -29 60
-53 84 -61 21 -7 48 -19 59 -26 16 -10 42 -11 120 -4 241 23 327 53 312 112
l-6 23 18 -23 17 -24 60 31 c32 17 87 41 121 52 58 20 113 57 113 76 0 4 -18
17 -40 27 -38 18 -135 113 -172 168 -23 35 -266 228 -286 228 -10 0 -46 25
-80 55 -35 30 -66 55 -70 55 -4 0 -21 14 -39 30 -18 17 -37 30 -42 30 -6 0
-11 4 -11 10 0 8 -82 70 -94 70 -3 0 -3 -7 0 -15 4 -8 3 -15 0 -15 -12 0 -46
35 -46 47 0 7 -17 25 -37 40 -21 15 -65 55 -100 88 -118 114 -151 143 -172
150 -12 3 -21 10 -21 15 0 5 -17 14 -37 21 -21 6 -49 20 -62 30 -13 11 -32 19
-42 19 -10 0 -25 10 -33 22 -14 19 -24 21 -96 21 -76 -1 -87 -4 -184 -52 -57
-28 -108 -51 -114 -51 -6 0 -21 -13 -35 -30 -14 -16 -38 -32 -53 -35 -42 -10
-84 -26 -84 -34 0 -4 -19 -26 -41 -49 -41 -41 -42 -43 -40 -106 1 -56 -1 -66
-21 -80 -32 -23 -32 -23 -176 199 -28 44 -122 241 -122 257 0 9 -4 19 -9 23
-17 10 -63 165 -57 190 8 33 37 50 147 88 102 35 133 64 58 53 -135 -19 -150
-19 -144 -4 8 21 -29 29 -53 12 -19 -13 -22 -11 -42 31 -12 25 -25 45 -29 45
-4 0 -15 -14 -25 -30z m1764 -950 c0 -5 -4 -10 -10 -10 -5 0 -10 5 -10 10 0 6
5 10 10 10 6 0 10 -4 10 -10z"/>
<path d="M8801 6273 c0 -29 -7 -64 -13 -79 -10 -22 -10 -28 0 -32 6 -2 12 -13
12 -24 0 -20 1 -20 20 -3 11 10 17 21 15 26 -9 14 15 21 30 9 11 -9 15 -9 15
-1 0 6 8 11 19 11 10 0 24 7 31 15 7 9 19 14 27 11 12 -5 33 29 33 53 0 14
-100 33 -139 26 -36 -6 -40 -4 -44 17 -2 13 -5 0 -6 -29z"/>
<path d="M1845 6300 c-3 -5 -2 -10 4 -10 5 0 13 5 16 10 3 6 2 10 -4 10 -5 0
-13 -4 -16 -10z"/>
<path d="M1790 6270 c0 -5 7 -10 16 -10 8 0 12 5 9 10 -3 6 -10 10 -16 10 -5
0 -9 -4 -9 -10z"/>
<path d="M1880 6269 c0 -5 5 -7 10 -4 6 3 10 8 10 11 0 2 -4 4 -10 4 -5 0 -10
-5 -10 -11z"/>
<path d="M1726 6233 c-13 -13 -6 -53 9 -53 8 0 15 -5 15 -11 0 -6 8 -9 17 -7
9 2 15 7 14 12 -2 5 3 13 11 17 9 6 6 9 -10 9 -18 0 -22 4 -18 18 4 13 0 18
-13 19 -10 1 -22 -1 -25 -4z"/>
<path d="M10000 6195 c0 -15 4 -24 10 -20 6 3 10 12 10 20 0 8 -4 17 -10 20
-6 4 -10 -5 -10 -20z"/>
<path d="M1220 6190 c0 -5 9 -10 20 -10 11 0 20 5 20 10 0 6 -9 10 -20 10 -11
0 -20 -4 -20 -10z"/>
<path d="M1600 6171 c-41 -3 -70 -9 -64 -13 16 -11 165 -5 161 6 -4 13 -9 13
-97 7z"/>
<path d="M9504 6146 c-19 -15 -19 -15 0 -29 13 -9 16 -18 10 -28 -4 -8 -10
-22 -11 -31 -3 -16 8 -18 116 -18 69 0 122 4 126 10 3 6 1 10 -4 10 -16 0 -13
16 4 34 8 8 15 21 15 28 0 32 -217 52 -256 24z"/>
<path d="M8902 6078 c4 -28 19 -27 30 1 6 17 3 21 -13 21 -15 0 -20 -5 -17
-22z"/>
<path d="M9000 6091 c0 -15 18 -23 25 -11 4 6 10 8 15 5 5 -3 11 -1 15 5 4 6
-6 10 -24 10 -17 0 -31 -4 -31 -9z"/>
<path d="M10520 6030 c0 -5 4 -10 9 -10 6 0 13 5 16 10 3 6 -1 10 -9 10 -9 0
-16 -4 -16 -10z"/>
<path d="M6706 5071 c-7 -11 22 -23 36 -15 6 4 5 10 -3 15 -18 11 -26 11 -33
0z"/>
<path d="M6765 4960 c-3 -5 3 -10 14 -10 12 0 21 5 21 10 0 6 -6 10 -14 10 -8
0 -18 -4 -21 -10z"/>
<path d="M2185 4850 c3 -5 10 -10 16 -10 5 0 9 5 9 10 0 6 -7 10 -16 10 -8 0
-12 -4 -9 -10z"/>
<path d="M6332 4821 c-30 -8 -33 -25 -6 -29 13 -2 24 4 28 14 8 21 6 22 -22
15z"/>
<path d="M2425 4690 c3 -5 11 -10 16 -10 6 0 7 5 4 10 -3 6 -11 10 -16 10 -6
0 -7 -4 -4 -10z"/>
<path d="M3881 4411 c11 -23 24 -52 29 -66 11 -28 30 -34 30 -9 0 14 7 15 48
8 85 -16 232 -11 285 10 34 13 47 23 45 34 -4 22 -60 42 -65 25 -3 -7 -9 -13
-14 -13 -6 0 -7 5 -4 11 5 7 -5 9 -26 7 -25 -2 -34 -8 -33 -21 2 -13 -5 -17
-30 -17 -17 0 -46 -2 -64 -6 -20 -4 -38 -2 -48 6 -21 19 -106 57 -142 65 l-31
6 20 -40z"/>
<path d="M5360 4440 c0 -5 4 -10 9 -10 5 0 11 -12 13 -27 2 -23 7 -28 27 -25
31 3 33 6 36 36 3 20 -2 25 -27 30 -43 9 -58 7 -58 -4z"/>
<path d="M5626 4392 c-3 -6 -1 -14 5 -17 15 -10 25 3 12 16 -7 7 -13 7 -17 1z"/>
<path d="M5295 4350 c-3 -5 1 -10 9 -10 9 0 16 5 16 10 0 6 -4 10 -9 10 -6 0
-13 -4 -16 -10z"/>
<path d="M5360 4340 c0 -11 4 -20 9 -20 11 0 22 26 14 34 -12 12 -23 5 -23
-14z"/>
<path d="M5042 4298 c5 -15 28 -18 29 -3 0 6 -7 12 -17 13 -10 3 -15 -1 -12
-10z"/>
<path d="M5133 4293 c-7 -2 -13 -11 -13 -18 0 -7 -6 -15 -12 -18 -7 -3 0 -10
16 -16 34 -14 49 -4 44 30 -3 24 -15 31 -35 22z"/>
<path d="M4915 4270 c-4 -6 5 -10 20 -10 15 0 24 4 20 10 -3 6 -12 10 -20 10
-8 0 -17 -4 -20 -10z"/>
<path d="M5148 4183 c7 -3 16 -2 19 1 4 3 -2 6 -13 5 -11 0 -14 -3 -6 -6z"/>
<path d="M305 4081 c-25 -5 -27 -8 -12 -14 10 -4 28 -7 39 -7 17 0 18 -3 8
-15 -10 -13 -9 -15 9 -15 11 0 21 6 21 14 0 8 14 18 33 22 28 6 29 8 12 15
-24 9 -68 9 -110 0z"/>
<path d="M2025 4009 c-17 -4 -62 -7 -102 -8 -65 -1 -95 -12 -79 -28 7 -7 491
-6 515 1 9 3 81 7 160 11 139 5 161 8 161 23 0 9 -615 9 -655 1z"/>
<path d="M10638 3919 c-25 -14 -23 -56 2 -64 29 -9 38 0 38 40 0 36 -10 42
-40 24z"/>
<path d="M9878 3143 c7 -3 16 -2 19 1 4 3 -2 6 -13 5 -11 0 -14 -3 -6 -6z"/>
<path d="M9740 3124 c-57 -38 -66 -74 -19 -74 23 0 41 10 65 36 19 20 32 40
29 45 -9 14 -48 11 -75 -7z"/>
<path d="M9588 3033 c7 -3 16 -2 19 1 4 3 -2 6 -13 5 -11 0 -14 -3 -6 -6z"/>
<path d="M9948 2926 c-16 -24 -28 -46 -28 -50 0 -3 11 -13 25 -22 21 -14 29
-14 55 -3 34 16 36 21 15 42 -8 8 -13 27 -12 43 3 44 -24 40 -55 -10z"/>
<path d="M10330 2890 c0 -5 9 -10 20 -10 11 0 20 5 20 10 0 6 -9 10 -20 10
-11 0 -20 -4 -20 -10z"/>
<path d="M10632 2878 c-7 -7 -12 -16 -12 -20 0 -12 28 -10 36 3 10 17 -10 31
-24 17z"/>
<path d="M0 2674 l0 -76 47 7 c25 4 56 12 67 19 12 7 46 19 78 26 40 9 55 17
51 26 -3 8 -16 14 -29 14 -13 0 -28 8 -33 19 -12 21 -80 41 -140 41 l-41 0 0
-76z"/>
<path d="M2073 2724 c-20 -9 -15 -24 8 -24 19 0 19 -1 5 -16 -32 -31 -7 -35
160 -30 90 3 189 6 219 6 43 0 59 5 79 24 29 26 31 32 14 35 -29 6 -474 10
-485 5z"/>
<path d="M2932 2722 c-11 -7 -10 -10 3 -16 27 -10 143 -7 150 4 3 6 -4 10 -17
10 -13 0 -45 3 -73 6 -27 3 -56 1 -63 -4z"/>
<path d="M10092 2718 c7 -20 48 -23 48 -4 0 11 -9 16 -26 16 -16 0 -24 -5 -22
-12z"/>
<path d="M281 2691 c-9 -6 -4 -10 18 -13 18 -3 35 0 38 5 3 6 1 7 -5 3 -7 -4
-12 -2 -12 3 0 13 -20 14 -39 2z"/>
<path d="M1425 1980 c-181 -9 -431 -37 -465 -51 -24 -10 -24 -11 -5 -22 61
-34 618 -44 805 -13 52 8 144 20 204 26 119 12 126 14 126 36 0 14 -5 15 -195
19 -27 0 -111 4 -185 7 -74 3 -202 2 -285 -2z"/>
<path d="M2400 1830 c0 -5 5 -10 11 -10 5 0 7 5 4 10 -3 6 -8 10 -11 10 -2 0
-4 -4 -4 -10z"/>
<path d="M2436 1821 c15 -14 75 -32 147 -45 84 -15 73 -1 -25 30 -73 24 -141
32 -122 15z"/>
<path d="M2736 1755 c-7 -18 -9 -17 104 -40 47 -10 104 -24 126 -32 36 -13 45
-13 69 0 27 13 25 14 -52 19 -48 4 -90 12 -105 22 -21 14 -111 46 -129 46 -4
0 -10 -7 -13 -15z"/>
<path d="M45 1680 c-3 -5 1 -10 9 -10 9 0 16 5 16 10 0 6 -4 10 -9 10 -6 0
-13 -4 -16 -10z"/>
<path d="M3063 1677 c-4 -6 -8 -19 -8 -27 0 -8 -7 -13 -15 -11 -8 2 -32 5 -52
6 -34 3 -38 1 -38 -19 0 -13 9 -31 20 -41 11 -10 20 -25 20 -34 0 -9 7 -26 15
-37 8 -12 19 -52 25 -90 16 -104 37 -158 81 -208 50 -57 46 -73 -27 -105 -46
-20 -60 -22 -75 -13 -11 7 -36 10 -57 7 -20 -2 -68 -7 -107 -10 -73 -6 -85
-14 -85 -56 0 -14 -3 -28 -6 -32 -11 -11 -52 23 -58 49 -5 17 -13 24 -31 24
-31 0 -34 -34 -5 -52 11 -7 20 -21 20 -31 0 -20 32 -36 38 -19 2 7 9 12 15 12
5 0 7 -3 4 -7 -4 -3 -2 -12 3 -18 8 -9 6 -14 -5 -19 -14 -5 -14 -8 1 -31 13
-21 14 -28 4 -41 -8 -8 -14 -27 -15 -42 -9 -122 -53 -206 -113 -216 -19 -3
-43 -13 -54 -23 -19 -17 -17 -18 59 -37 108 -26 130 -24 184 12 26 18 56 32
67 32 11 0 25 7 32 15 7 8 19 15 26 15 8 0 14 4 14 9 0 6 27 28 59 51 63 44
75 61 66 91 -5 14 0 22 17 28 13 5 32 18 42 30 11 12 44 29 74 37 l55 16 -24
20 c-17 14 -20 21 -11 25 13 5 56 47 182 177 30 31 86 78 124 103 37 26 70 52
73 59 3 7 -2 23 -11 36 -9 12 -16 39 -16 59 0 21 -8 64 -19 98 -23 74 -15 85
50 73 24 -4 54 -6 67 -4 19 3 21 6 11 18 -6 8 -17 14 -24 14 -6 0 -25 6 -41
14 -16 7 -62 17 -102 20 -40 3 -88 12 -106 20 -18 7 -66 17 -107 21 -41 4 -81
13 -89 20 -22 18 -137 28 -147 12z m75 -782 c5 -23 -14 -35 -59 -35 -42 0 -49
5 -42 30 4 13 16 20 42 23 49 5 55 3 59 -18z m-498 -289 c0 -2 -7 -7 -16 -10
-8 -3 -12 -2 -9 4 6 10 25 14 25 6z"/>
<path d="M0 1664 c0 -8 5 -12 10 -9 6 4 8 11 5 16 -9 14 -15 11 -15 -7z"/>
<path d="M895 1276 c-54 -17 -96 -40 -118 -64 -26 -29 -6 -36 51 -18 117 38
314 48 434 22 37 -8 92 -28 123 -46 30 -17 77 -44 105 -58 27 -15 90 -66 139
-115 50 -48 91 -81 91 -72 0 8 -14 44 -32 80 -85 178 -329 286 -642 284 -61 0
-129 -6 -151 -13z"/>
<path d="M10275 1250 c-271 -14 -344 -24 -322 -47 5 -4 47 -9 95 -11 491 -18
674 -30 691 -46 10 -9 27 -16 39 -16 20 0 22 5 22 50 0 48 -1 49 -32 54 -18 3
-82 8 -143 11 -60 3 -128 7 -150 9 -22 2 -112 0 -200 -4z"/>
<path d="M700 1156 c-12 -20 -26 -36 -30 -36 -9 0 -70 -80 -70 -91 0 -5 13 -3
30 2 53 19 126 127 102 151 -8 8 -16 2 -32 -26z"/>
<path d="M223 1128 c-41 -45 -133 -246 -133 -289 0 -11 -4 -19 -10 -19 -5 0
-10 -10 -10 -22 0 -23 0 -23 14 2 8 14 22 41 32 60 10 19 31 55 48 80 17 25
38 66 48 92 9 26 24 62 32 79 9 18 16 34 16 36 0 10 -19 0 -37 -19z"/>
<path d="M2480 1139 c-21 -4 -26 -7 -13 -8 12 0 31 -13 42 -27 22 -28 54 -29
59 -2 5 25 -45 46 -88 37z"/>
<path d="M2475 1071 c-9 -16 3 -31 26 -31 14 0 19 6 17 17 -4 20 -33 29 -43
14z"/>
<path d="M477 1019 c-29 -62 -48 -141 -46 -184 1 -17 -6 -50 -15 -75 -9 -25
-20 -89 -23 -142 -5 -84 -4 -98 9 -98 20 0 26 31 39 195 9 98 17 141 33 175
32 64 52 158 38 172 -8 8 -17 -4 -35 -43z"/>
<path d="M2595 1063 c-19 -5 -35 -20 -35 -34 0 -11 55 -18 66 -8 12 10 7 50
-5 48 -3 -1 -15 -4 -26 -6z"/>
<path d="M1113 1050 c-23 -9 -32 -30 -14 -30 20 0 61 20 61 30 0 12 -17 12
-47 0z"/>
<path d="M350 959 c-22 -46 -46 -90 -54 -98 -21 -25 -25 -70 -14 -153 10 -79
6 -127 -7 -73 -3 17 -13 53 -20 80 -8 28 -20 72 -27 98 -21 80 -58 90 -58 16
0 -23 -11 -73 -24 -112 -14 -40 -26 -83 -28 -97 -2 -17 -10 -26 -24 -28 -38
-5 -65 -46 -76 -114 -6 -35 -12 -156 -15 -270 l-4 -208 255 0 c141 0 256 2
256 4 0 3 -5 17 -11 33 -6 15 -20 60 -30 98 -19 66 -26 92 -62 240 -9 33 -23
124 -31 203 -18 153 -12 254 19 356 36 118 8 133 -45 25z"/>
<path d="M1066 1002 c-11 -2 -26 -10 -33 -18 -8 -7 -24 -20 -35 -29 -27 -18
-18 -30 16 -21 53 13 102 78 52 68z"/>
<path d="M1354 981 c-87 -32 -96 -40 -44 -42 50 -2 58 -2 117 5 90 11 254 -68
313 -151 19 -26 37 -50 40 -53 4 -3 9 -13 13 -22 7 -19 27 -25 27 -8 0 20 -93
170 -105 170 -6 0 -20 9 -30 20 -9 10 -48 35 -84 53 -88 45 -174 55 -247 28z"/>
<path d="M2443 979 l-21 -22 20 -38 c15 -29 26 -39 44 -39 23 0 26 3 28 33 1
6 6 15 11 19 6 5 5 8 -2 8 -7 0 -13 11 -13 24 0 21 -16 36 -39 36 -3 0 -16
-10 -28 -21z"/>
<path d="M810 910 c-90 -93 -193 -251 -215 -330 l-7 -25 24 25 c12 14 56 66
97 115 41 50 96 113 122 140 47 49 84 116 72 129 -16 15 -39 2 -93 -54z"/>
<path d="M2551 951 c-24 -15 1 -57 38 -64 18 -4 31 -13 31 -22 0 -8 4 -15 9
-15 5 0 8 21 7 48 -1 39 -4 47 -21 48 -11 1 -27 5 -35 8 -8 3 -21 2 -29 -3z"/>
<path d="M10640 940 c0 -5 9 -10 21 -10 11 0 17 5 14 10 -3 6 -13 10 -21 10
-8 0 -14 -4 -14 -10z"/>
<path d="M629 904 c-76 -50 -106 -89 -129 -164 -22 -77 -35 -197 -25 -237 6
-24 14 -7 55 114 37 111 57 156 91 200 101 132 102 151 8 87z"/>
<path d="M10778 933 c7 -3 16 -2 19 1 4 3 -2 6 -13 5 -11 0 -14 -3 -6 -6z"/>
<path d="M3360 771 c-5 -11 -10 -22 -10 -25 0 -13 38 -5 51 10 10 13 10 17 -2
25 -21 13 -27 11 -39 -10z"/>
<path d="M3207 733 c-14 -13 -6 -33 12 -33 19 0 35 23 24 34 -8 8 -28 8 -36
-1z"/>
<path d="M2480 460 c0 -5 11 -10 24 -10 14 0 28 5 31 10 4 6 -7 10 -24 10 -17
0 -31 -4 -31 -10z"/>
<path d="M9958 328 c16 -8 28 -8 45 0 19 9 17 11 -23 11 -40 0 -42 -2 -22 -11z"/>
<path d="M9890 310 c0 -5 11 -10 25 -10 14 0 25 5 25 10 0 6 -11 10 -25 10
-14 0 -25 -4 -25 -10z"/>
<path d="M2268 289 c-29 -16 -21 -31 15 -27 20 2 32 8 32 18 0 18 -24 23 -47
9z"/>
<path d="M4021 181 c-9 -6 -10 -11 -2 -15 15 -10 53 3 46 15 -8 11 -26 11 -44
0z"/>
<path d="M10223 175 c0 -9 10 -15 23 -15 17 0 22 4 18 15 -4 8 -14 15 -23 15
-10 0 -18 -7 -18 -15z"/>
<path d="M10190 170 c0 -5 5 -10 10 -10 6 0 10 5 10 10 0 6 -4 10 -10 10 -5 0
-10 -4 -10 -10z"/>
<path d="M3856 163 c-4 -4 -33 -11 -64 -15 -117 -15 -157 -23 -147 -29 12 -8
250 26 285 40 22 9 19 10 -21 10 -25 1 -49 -2 -53 -6z"/>
<path d="M9958 159 c-28 -16 -21 -29 15 -30 28 -1 29 -2 8 -8 -25 -7 -50 -36
-40 -45 3 -3 27 -9 52 -12 43 -6 47 -5 47 15 0 14 6 21 20 21 27 0 25 -9 -11
-48 -23 -26 -37 -33 -62 -31 -48 3 -67 0 -67 -11 0 -6 33 -10 80 -10 47 0 80
4 80 10 0 13 57 13 65 0 9 -15 85 -13 85 3 0 7 -15 35 -34 63 -24 36 -49 58
-80 73 -49 22 -128 28 -158 10z"/>
<path d="M10290 145 c7 -9 15 -13 17 -11 7 7 -7 26 -19 26 -6 0 -6 -6 2 -15z"/>
<path d="M1286 133 c-38 -20 -84 -63 -68 -63 6 0 12 5 12 10 0 6 5 10 10 10
18 0 100 42 100 51 0 13 -21 10 -54 -8z"/>
<path d="M6105 140 c3 -5 13 -10 21 -10 8 0 12 5 9 10 -3 6 -13 10 -21 10 -8
0 -12 -4 -9 -10z"/>
<path d="M6010 85 c0 -21 11 -23 41 -8 16 8 29 16 29 18 0 2 -16 3 -35 2 -19
-1 -35 -6 -35 -12z"/>
<path d="M10295 80 c-4 -6 7 -10 25 -10 18 0 29 4 25 10 -3 6 -15 10 -25 10
-10 0 -22 -4 -25 -10z"/>
<path d="M3438 73 c7 -3 16 -2 19 1 4 3 -2 6 -13 5 -11 0 -14 -3 -6 -6z"/>
<path d="M6129 62 c6 -11 6 -24 0 -33 -16 -25 -10 -29 41 -29 28 0 50 5 50 10
0 6 -4 10 -8 10 -4 0 -16 14 -25 30 -13 20 -26 30 -43 30 -21 0 -23 -3 -15
-18z"/>
<path d="M3991 49 c-15 -6 -21 -13 -15 -19 8 -8 90 12 103 26 8 8 -65 3 -88
-7z"/>
<path d="M10315 40 c-3 -5 3 -10 14 -10 11 0 23 5 26 10 3 6 -3 10 -14 10 -11
0 -23 -4 -26 -10z"/>
<path d="M3853 23 c9 -2 23 -2 30 0 6 3 -1 5 -18 5 -16 0 -22 -2 -12 -5z"/>
<path d="M3155 10 c-4 -6 5 -10 20 -10 15 0 24 4 20 10 -8 13 -32 13 -40 0z"/>
<path d="M3690 10 c-10 -7 11 -10 70 -10 59 0 80 3 70 10 -19 13 -121 13 -140
0z"/>
<path d="M3940 10 c0 -5 9 -10 20 -10 11 0 20 5 20 10 0 6 -9 10 -20 10 -11 0
-20 -4 -20 -10z"/>
</g>
</svg>
