<svg width="67" height="64" viewBox="0 0 67 64" fill="none" xmlns="http://www.w3.org/2000/svg">
<path d="M53.3333 6.87333V0H13.3333V6.87333H0V16.6667C0 25.0833 6.29667 31.9933 14.4133 33.1067C15.5759 36.516 17.638 39.5479 20.3816 41.882C23.1252 44.216 26.4484 45.7655 30 46.3667V50C30 51.7681 29.2976 53.4638 28.0474 54.714C26.7971 55.9643 25.1014 56.6667 23.3333 56.6667H20V63.3333H46.6667V56.6667H43.3333C41.5652 56.6667 39.8695 55.9643 38.6193 54.714C37.3691 53.4638 36.6667 51.7681 36.6667 50V46.3667C40.2183 45.7655 43.5415 44.216 46.2851 41.882C49.0287 39.5479 51.0907 36.516 52.2533 33.1067C60.37 31.9933 66.6667 25.0833 66.6667 16.6667V6.87333H53.3333ZM6.66667 16.6667V13.54H13.3333V26.0933C11.385 25.4024 9.6982 24.1254 8.50455 22.4376C7.31091 20.7498 6.66891 18.7339 6.66667 16.6667ZM60 16.6667C59.9975 18.7342 59.3554 20.7504 58.1619 22.4387C56.9683 24.127 55.2817 25.4047 53.3333 26.0967V13.54H60V16.6667Z" fill="#4DBD49"/>
</svg>
