<svg width="66" height="59" viewBox="0 0 66 59" fill="none" xmlns="http://www.w3.org/2000/svg">
<path d="M29.4055 0.897685C31.0462 0.0194055 32.9701 -0.225551 34.7901 0.212103C36.6101 0.649757 38.1911 1.73754 39.215 3.25659L39.4887 3.69649L65.0725 48.3531C65.6766 49.4084 65.9955 50.594 66 51.8001C66.0044 53.0062 65.6941 54.1939 65.0978 55.2534C64.5016 56.3128 63.6386 57.2098 62.5887 57.8614C61.5388 58.5129 60.3359 58.8979 59.0912 58.9809L58.5834 59H7.42225C6.17572 59.0005 4.94915 58.6974 3.85579 58.1186C2.76244 57.5399 1.83756 56.7041 1.16656 55.6885C0.495568 54.6729 0.100087 53.5102 0.0166429 52.3078C-0.0668012 51.1054 0.164482 49.9021 0.689133 48.8089L0.92654 48.3531L26.5071 3.69649C27.1824 2.51907 28.1868 1.54916 29.4055 0.897685ZM33.0028 43.0392C32.5617 43.0257 32.1223 43.098 31.7106 43.2519C31.299 43.4058 30.9235 43.6381 30.6065 43.9349C30.2896 44.2318 30.0375 44.5873 29.8654 44.9802C29.6933 45.3731 29.6046 45.7954 29.6046 46.2221C29.6046 46.6488 29.6933 47.0711 29.8654 47.464C30.0375 47.8569 30.2896 48.2123 30.6065 48.5092C30.9235 48.8061 31.299 49.0384 31.7106 49.1923C32.1223 49.3462 32.5617 49.4185 33.0028 49.405C33.858 49.3788 34.6691 49.032 35.2644 48.438C35.8598 47.8439 36.1926 47.0492 36.1926 46.2221C36.1926 45.3949 35.8598 44.6002 35.2644 44.0062C34.6691 43.4121 33.858 43.0653 33.0028 43.0392ZM32.9962 17.5248C32.1881 17.525 31.4082 17.8121 30.8046 18.3315C30.201 18.851 29.8158 19.5667 29.722 20.3427L29.7055 20.7125V36.6574L29.7286 37.0303C29.8207 37.8078 30.2055 38.5254 30.8096 39.0463C31.4138 39.5673 32.195 39.8552 33.0045 39.8552C33.814 39.8552 34.5952 39.5673 35.1993 39.0463C35.8034 38.5254 36.1882 37.8078 36.2804 37.0303L36.3002 36.6574V20.7125L36.2771 20.3395C36.1825 19.5635 35.7965 18.8482 35.1922 18.3293C34.588 17.8104 33.8044 17.5241 32.9962 17.5248Z" fill="#4DBD49"/>
</svg>
